999
FreeCAD v0.19 0.19.4
  0
SECTION
  2
HEADER
  9
$ACADVER
  1
AC1014
  9
$ACADMAINTVER
 70
     9
  9
$DWGCODEPAGE
  3
ANSI_1252
  9
$TEXTSTYLE
  7
STANDARD
  9
$DIMSTYLE
  2
STANDARD
  9
$DIMTXSTY
  7
STANDARD
  9
$CMLSTYLE
  2
STANDARD
  9
$PEXTMAX
 10
50
 20
50
 30
50
  9
$PEXTMIN
 10
0
 20
0
 30
0
  9
$HANDSEED
  5
FFFF
  0
ENDSEC
  0
SECTION
  2
CLASSES
  0
CLASS
  1
ACDBDICTIONARYWDFLT
  2
AcDbDictionaryWithDefault
  3
ObjectDBX Classes
 90
        0
280
     0
281
     0
  0
CLASS
  1
XRECORD
  2
AcDbXrecord
  3
ObjectDBX Classes
 90
        0
280
     0
281
     0
  0
CLASS
  1
LWPOLYLINE
  2
AcDbPolyline
  3
ObjectDBX Classes
 90
        0
280
     0
281
     1
  0
ENDSEC
  0
SECTION
  2
TABLES
  0
TABLE
  2
VPORT
  5
20
330
0
100
AcDbSymbolTable
 70
     1
  0
VPORT
  5
21
330
20
100
AcDbSymbolTableRecord
100
AcDbViewportTableRecord
  2
*ACTIVE
 70
     0
  0
ENDTAB
  0
TABLE
  2
LTYPE
  5
22
330
0
100
AcDbSymbolTable
 70
     1
  0
LTYPE
  5
23
330
21
100
AcDbSymbolTableRecord
100
AcDbLinetypeTableRecord
  2
BYBLOCK
 70
     0
  3

 72
    65
 73
     0
 40
0.0
  0
LTYPE
  5
24
330
21
100
AcDbSymbolTableRecord
100
AcDbLinetypeTableRecord
  2
BYLAYER
 70
     0
  3

 72
    65
 73
     0
 40
0.0
  0
LTYPE
  5
25
330
21
100
AcDbSymbolTableRecord
100
AcDbLinetypeTableRecord
  2
CONTINUOUS
 70
     0
  3
Solid line
 72
    65
 73
     0
 40
0.0
  0
ENDTAB
  0
TABLE
  2
LAYER
  5
A3F
330
0
100
AcDbSymbolTable
 70
3
  0
LAYER
  5
A40
330
A3F
100
AcDbSymbolTableRecord
100
AcDbLayerTableRecord
  2
0
 70
   0
 62
   7
  6
CONTINUOUS
  0
LAYER
  5
A41
330
A3F
100
AcDbSymbolTableRecord
100
AcDbLayerTableRecord
  2
none
 70
    0
 62
    7
  6
CONTINUOUS
  0
LAYER
  5
A42
330
A3F
100
AcDbSymbolTableRecord
100
AcDbLayerTableRecord
  2
Sketch003
 70
    0
 62
    7
  6
CONTINUOUS
  0
ENDTAB
  0
TABLE
  2
STYLE
  5
70
330
0
100
AcDbSymbolTable
 70
     2
  0
STYLE
  5
71
330
70
100
AcDbSymbolTableRecord
100
AcDbTextStyleTableRecord
  2
STANDARD
 70
     0
 40
0.0
 41
1.0
 50
0.0
 71
     0
 42
2.5
  3
arial.ttf
  4

  0
STYLE
  5
72
330
70
100
AcDbSymbolTableRecord
100
AcDbTextStyleTableRecord
  2
ANNOTATIVE
 70
     0
 40
0.0
 41
1.0
 50
0.0
 71
     0
 42
2.5
  3
arial.ttf
  4

  0
ENDTAB
  0
TABLE
  2
VIEW
  5
73
330
0
100
AcDbSymbolTable
 70
     0
  0
ENDTAB
  0
TABLE
  2
UCS
  5
74
330
0
100
AcDbSymbolTable
 70
     0
  0
ENDTAB
  0
TABLE
  2
APPID
  5
75
330
0
100
AcDbSymbolTable
 70
     2
  0
APPID
  5
76
330
75
100
AcDbSymbolTableRecord
100
AcDbRegAppTableRecord
  2
ACAD
 70
     0
  0
APPID
  5
77
330
75
100
AcDbSymbolTableRecord
100
AcDbRegAppTableRecord
  2
ACADANNOTATIVE
 70
     0
  0
ENDTAB
  0
TABLE
  2
DIMSTYLE
  5
78
330
0
100
AcDbSymbolTable
 70
     2
  0
DIMSTYLE
105
79
330
78
100
AcDbSymbolTableRecord
100
AcDbDimStyleTableRecord
  2
STANDARD
 70
     0
  3

  4

  5

  6

  7

 40
0.0
 41
2.5
 42
0.625
 43
3.75
 44
1.25
 45
0.0
 46
0.0
 47
0.0
 48
0.0
140
2.5
141
2.5
142
0.0
143
0.03937007874016
144
1.0
145
0.0
146
1.0
147
0.625
 71
     0
 72
     0
 73
     0
 74
     0
 75
     0
 76
     0
 77
     1
 78
     8
170
     0
171
     3
172
     1
173
     0
174
     0
175
     0
176
     0
177
     0
178
     0
270
     2
271
     2
272
     2
273
     2
274
     3
340
71
275
     0
280
     0
281
     0
282
     0
283
     0
284
     8
285
     0
286
     0
287
     3
288
     0
  0
ENDTAB
  0
TABLE
  2
BLOCK_RECORD
  5
A01
330
0
100
AcDbSymbolTable
  70
5
  0
BLOCK_RECORD
  5
A02
330
A01
100
AcDbSymbolTableRecord
100
AcDbBlockTableRecord
  2
*MODEL_SPACE
  0
BLOCK_RECORD
  5
A03
330
A01
100
AcDbSymbolTableRecord
100
AcDbBlockTableRecord
  2
*PAPER_SPACE
  0
ENDTAB
  0
ENDSEC
  0
SECTION
  2
BLOCKS
  0
BLOCK
  5
A04
330
A02
100
AcDbEntity
  8
0
100
AcDbBlockBegin
  2
*MODEL_SPACE
 70
   0
 10
0
 20
0
 30
0
  3
*MODEL_SPACE
  1
 
  0
ENDBLK
  5
A05
330
A02
100
AcDbEntity
  8
0
100
AcDbBlockEnd
  0
BLOCK
  5
A06
330
A03
100
AcDbEntity
 67
1
  8
0
100
AcDbBlockBegin
  2
*PAPER_SPACE
 70
   0
 10
0
 20
0
 30
0
  3
*PAPER_SPACE
  1
 
  0
ENDBLK
  5
A07
330
A03
100
AcDbEntity
 67
    1
  8
0
100
AcDbBlockEnd
  0
ENDSEC
  0
SECTION
  2
ENTITIES
  0
LINE
  5
A08
330
A02
100
AcDbEntity
  8
Sketch003
100
AcDbLine
 10
30.66
 20
-12.3899
 30
0
 11
26.3408
 21
-27.202
 31
0
  0
ARC
  5
A09
330
A02
100
AcDbEntity
  8
Sketch003
100
AcDbCircle
 10
25.3808
 20
-26.9221
 30
0
 40
1
100
AcDbArc
 50
-33.5
 51
-16.2568
  0
LINE
  5
A0A
330
A02
100
AcDbEntity
  8
Sketch003
100
AcDbLine
 10
16.3642
 20
-42.3564
 30
0
 11
26.2147
 21
-27.474
 31
0
  0
ARC
  5
A0B
330
A02
100
AcDbEntity
  8
Sketch003
100
AcDbCircle
 10
15.5304
 20
-41.8044
 30
0
 40
1
100
AcDbArc
 50
-123.5
 51
-33.5
  0
LINE
  5
A0C
330
A02
100
AcDbEntity
  8
Sketch003
100
AcDbLine
 10
0.0782638
 20
-32.7761
 30
0
 11
14.9784
 21
-42.6383
 31
0
  0
ARC
  5
A0D
330
A02
100
AcDbEntity
  8
Sketch003
100
AcDbCircle
 10
-0.473673
 20
-33.61
 30
0
 40
1
100
AcDbArc
 50
56.5
 51
71.5
  0
LINE
  5
A0E
330
A02
100
AcDbEntity
  8
Sketch003
100
AcDbLine
 10
-0.156369
 20
-32.6617
 30
0
 11
-17.9248
 21
-26.7164
 31
0
  0
ARC
  5
A0F
330
A02
100
AcDbEntity
  8
Sketch003
100
AcDbCircle
 10
-18.2421
 20
-27.6648
 30
0
 40
1
100
AcDbArc
 50
71.5
 51
86.5
  0
LINE
  5
A10
330
A02
100
AcDbEntity
  8
Sketch003
100
AcDbLine
 10
-18.1811
 20
-26.6666
 30
0
 11
-36.4652
 21
-25.5483
 31
0
  0
ARC
  5
A11
330
A02
100
AcDbEntity
  8
Sketch003
100
AcDbCircle
 10
-36.4042
 20
-24.5502
 30
0
 40
1
100
AcDbArc
 50
-151.125
 51
-93.5
  0
LINE
  5
A12
330
A02
100
AcDbEntity
  8
Sketch003
100
AcDbLine
 10
-47.2148
 20
-7.0171
 30
0
 11
-37.2798
 21
-25.0331
 31
0
  0
ARC
  5
A13
330
A02
100
AcDbEntity
  8
Sketch003
100
AcDbCircle
 10
-48.0905
 20
-7.5
 30
0
 40
1
100
AcDbArc
 50
28.8747
 51
90
  0
LINE
  5
A14
330
A02
100
AcDbEntity
  8
Sketch003
100
AcDbLine
 10
-48.0905
 20
-6.5
 30
0
 11
-65.3082
 21
-6.5
 31
0
  0
ARC
  5
A15
330
A02
100
AcDbEntity
  8
Sketch003
100
AcDbCircle
 10
-65.3082
 20
-7.5
 30
0
 40
1
100
AcDbArc
 50
90
 51
-170
  0
LINE
  5
A16
330
A02
100
AcDbEntity
  8
Sketch003
100
AcDbLine
 10
-66.2931
 20
-7.67365
 30
0
 11
-64.7635
 21
-16.3481
 31
0
  0
ARC
  5
A17
330
A02
100
AcDbEntity
  8
Sketch003
100
AcDbCircle
 10
-65.7483
 20
-16.5217
 30
0
 40
1
100
AcDbArc
 50
-80
 51
10
  0
LINE
  5
A18
330
A02
100
AcDbEntity
  8
Sketch003
100
AcDbLine
 10
-65.5747
 20
-17.5065
 30
0
 11
-82.3164
 21
-20.4586
 31
0
  0
ARC
  5
A19
330
A02
100
AcDbEntity
  8
Sketch003
100
AcDbCircle
 10
-82.4901
 20
-19.4737
 30
0
 40
1
100
AcDbArc
 50
-170
 51
-80
  0
LINE
  5
A1A
330
A02
100
AcDbEntity
  8
Sketch003
100
AcDbLine
 10
-93.0255
 20
34.517
 30
0
 11
-83.4749
 21
-19.6474
 31
0
  0
ARC
  5
A1B
330
A02
100
AcDbEntity
  8
Sketch003
100
AcDbCircle
 10
-92.0407
 20
34.6907
 30
0
 40
1
100
AcDbArc
 50
100
 51
-170
  0
LINE
  5
A1C
330
A02
100
AcDbEntity
  8
Sketch003
100
AcDbLine
 10
-92.2144
 20
35.6755
 30
0
 11
-67.3264
 21
40.0639
 31
0
  0
ARC
  5
A1D
330
A02
100
AcDbEntity
  8
Sketch003
100
AcDbCircle
 10
-67.5
 20
41.0487
 30
0
 40
1
100
AcDbArc
 50
-80
 51
0
  0
LINE
  5
A1E
330
A02
100
AcDbEntity
  8
Sketch003
100
AcDbLine
 10
-66.5
 20
49.5
 30
0
 11
-66.5
 21
41.0487
 31
0
  0
ARC
  5
A1F
330
A02
100
AcDbEntity
  8
Sketch003
100
AcDbCircle
 10
-65.5
 20
49.5
 30
0
 40
1
100
AcDbArc
 50
90
 51
180
  0
LINE
  5
A20
330
A02
100
AcDbEntity
  8
Sketch003
100
AcDbLine
 10
-65.5
 20
50.5
 30
0
 11
-48.5
 21
50.5
 31
0
  0
ARC
  5
A21
330
A02
100
AcDbEntity
  8
Sketch003
100
AcDbCircle
 10
-48.5
 20
51.5
 30
0
 40
1
100
AcDbArc
 50
-90
 51
0
  0
LINE
  5
A22
330
A02
100
AcDbEntity
  8
Sketch003
100
AcDbLine
 10
-47.5
 20
55.5
 30
0
 11
-47.5
 21
51.5
 31
0
  0
ARC
  5
A23
330
A02
100
AcDbEntity
  8
Sketch003
100
AcDbCircle
 10
-46.5
 20
55.5
 30
0
 40
1
100
AcDbArc
 50
90
 51
180
  0
LINE
  5
A24
330
A02
100
AcDbEntity
  8
Sketch003
100
AcDbLine
 10
-46.5
 20
56.5
 30
0
 11
-29.5
 21
56.5
 31
0
  0
ARC
  5
A25
330
A02
100
AcDbEntity
  8
Sketch003
100
AcDbCircle
 10
-29.5
 20
55.5
 30
0
 40
1
100
AcDbArc
 50
0
 51
90
  0
LINE
  5
A26
330
A02
100
AcDbEntity
  8
Sketch003
100
AcDbLine
 10
-28.5
 20
55.5
 30
0
 11
-28.5
 21
51
 31
0
  0
ARC
  5
A27
330
A02
100
AcDbEntity
  8
Sketch003
100
AcDbCircle
 10
-27.5
 20
51
 30
0
 40
1
100
AcDbArc
 50
180
 51
-90
  0
LINE
  5
A28
330
A02
100
AcDbEntity
  8
Sketch003
100
AcDbLine
 10
-27.5
 20
50
 30
0
 11
-10.5
 21
50
 31
0
  0
ARC
  5
A29
330
A02
100
AcDbEntity
  8
Sketch003
100
AcDbCircle
 10
-10.5
 20
49
 30
0
 40
1
100
AcDbArc
 50
0
 51
90
  0
LINE
  5
A2A
330
A02
100
AcDbEntity
  8
Sketch003
100
AcDbLine
 10
-9.5
 20
49
 30
0
 11
-9.5
 21
48.5
 31
0
  0
ARC
  5
A2B
330
A02
100
AcDbEntity
  8
Sketch003
100
AcDbCircle
 10
-8.5
 20
48.5
 30
0
 40
1
100
AcDbArc
 50
180
 51
-90
  0
LINE
  5
A2C
330
A02
100
AcDbEntity
  8
Sketch003
100
AcDbLine
 10
9.5
 20
47.5
 30
0
 11
-8.5
 21
47.5
 31
0
  0
LINE
  5
A2D
330
A02
100
AcDbEntity
  8
Sketch003
100
AcDbLine
 10
9.5
 20
47.5
 30
0
 11
13.6
 21
47.5
 31
0
  0
ARC
  5
A2E
330
A02
100
AcDbEntity
  8
Sketch003
100
AcDbCircle
 10
13.6
 20
46.5
 30
0
 40
1
100
AcDbArc
 50
0
 51
90
  0
LINE
  5
A2F
330
A02
100
AcDbEntity
  8
Sketch003
100
AcDbLine
 10
14.6
 20
46.5
 30
0
 11
14.6
 21
29.5
 31
0
  0
ARC
  5
A30
330
A02
100
AcDbEntity
  8
Sketch003
100
AcDbCircle
 10
15.6
 20
29.5
 30
0
 40
1
100
AcDbArc
 50
180
 51
-90
  0
LINE
  5
A31
330
A02
100
AcDbEntity
  8
Sketch003
100
AcDbLine
 10
24.6
 20
28.5
 30
0
 11
15.6
 21
28.5
 31
0
  0
ARC
  5
A32
330
A02
100
AcDbEntity
  8
Sketch003
100
AcDbCircle
 10
24.6
 20
29.5
 30
0
 40
1
100
AcDbArc
 50
-90
 51
0
  0
LINE
  5
A33
330
A02
100
AcDbEntity
  8
Sketch003
100
AcDbLine
 10
25.6
 20
46.5
 30
0
 11
25.6
 21
29.5
 31
0
  0
ARC
  5
A34
330
A02
100
AcDbEntity
  8
Sketch003
100
AcDbCircle
 10
26.6
 20
46.5
 30
0
 40
1
100
AcDbArc
 50
90
 51
180
  0
LINE
  5
A35
330
A02
100
AcDbEntity
  8
Sketch003
100
AcDbLine
 10
29.7
 20
47.5
 30
0
 11
26.6
 21
47.5
 31
0
  0
ARC
  5
A36
330
A02
100
AcDbEntity
  8
Sketch003
100
AcDbCircle
 10
29.7
 20
46.5
 30
0
 40
1
100
AcDbArc
 50
0
 51
90
  0
LINE
  5
A37
330
A02
100
AcDbEntity
  8
Sketch003
100
AcDbLine
 10
30.7
 20
46.5
 30
0
 11
30.7
 21
-12.1
 31
0
  0
LINE
  5
A38
330
A02
100
AcDbEntity
  8
Sketch003
100
AcDbLine
 10
30.7
 20
-12.1
 30
0
 11
30.7
 21
-12.11
 31
0
  0
ARC
  5
A39
330
A02
100
AcDbEntity
  8
Sketch003
100
AcDbCircle
 10
29.7
 20
-12.11
 30
0
 40
1
100
AcDbArc
 50
-16.2568
 51
0
  0
CIRCLE
  5
A3A
330
A02
100
AcDbEntity
  8
Sketch003
100
AcDbCircle
 10
-71.1885
 20
20.0898
 40
1
  0
CIRCLE
  5
A3B
330
A02
100
AcDbEntity
  8
Sketch003
100
AcDbCircle
 10
-67.8892
 20
1.37846
 40
1
  0
CIRCLE
  5
A3C
330
A02
100
AcDbEntity
  8
Sketch003
100
AcDbCircle
 10
-35.8543
 20
-6.55019
 40
1
  0
CIRCLE
  5
A3D
330
A02
100
AcDbEntity
  8
Sketch003
100
AcDbCircle
 10
5.99727
 20
-14.6853
 40
1
  0
CIRCLE
  5
A3E
330
A02
100
AcDbEntity
  8
Sketch003
100
AcDbCircle
 10
-9.5
 20
31
 40
1
  0
ENDSEC
  0
SECTION
  2
OBJECTS
  0
DICTIONARY
  5
F000
330
0
100
AcDbDictionary
  3
ACAD_GROUP
350
F001
  0
DICTIONARY
  5
F001
330
F000
100
AcDbDictionary
  0
ENDSEC
  0
EOF