999
FreeCAD v0.19 0.19.4
  0
SECTION
  2
HEADER
  9
$ACADVER
  1
AC1014
  9
$ACADMAINTVER
 70
     9
  9
$DWGCODEPAGE
  3
ANSI_1252
  9
$TEXTSTYLE
  7
STANDARD
  9
$DIMSTYLE
  2
STANDARD
  9
$DIMTXSTY
  7
STANDARD
  9
$CMLSTYLE
  2
STANDARD
  9
$PEXTMAX
 10
50
 20
50
 30
50
  9
$PEXTMIN
 10
0
 20
0
 30
0
  9
$HANDSEED
  5
FFFF
  0
ENDSEC
  0
SECTION
  2
CLASSES
  0
CLASS
  1
ACDBDICTIONARYWDFLT
  2
AcDbDictionaryWithDefault
  3
ObjectDBX Classes
 90
        0
280
     0
281
     0
  0
CLASS
  1
XRECORD
  2
AcDbXrecord
  3
ObjectDBX Classes
 90
        0
280
     0
281
     0
  0
CLASS
  1
LWPOLYLINE
  2
AcDbPolyline
  3
ObjectDBX Classes
 90
        0
280
     0
281
     1
  0
ENDSEC
  0
SECTION
  2
TABLES
  0
TABLE
  2
VPORT
  5
20
330
0
100
AcDbSymbolTable
 70
     1
  0
VPORT
  5
21
330
20
100
AcDbSymbolTableRecord
100
AcDbViewportTableRecord
  2
*ACTIVE
 70
     0
  0
ENDTAB
  0
TABLE
  2
LTYPE
  5
22
330
0
100
AcDbSymbolTable
 70
     1
  0
LTYPE
  5
23
330
21
100
AcDbSymbolTableRecord
100
AcDbLinetypeTableRecord
  2
BYBLOCK
 70
     0
  3

 72
    65
 73
     0
 40
0.0
  0
LTYPE
  5
24
330
21
100
AcDbSymbolTableRecord
100
AcDbLinetypeTableRecord
  2
BYLAYER
 70
     0
  3

 72
    65
 73
     0
 40
0.0
  0
LTYPE
  5
25
330
21
100
AcDbSymbolTableRecord
100
AcDbLinetypeTableRecord
  2
CONTINUOUS
 70
     0
  3
Solid line
 72
    65
 73
     0
 40
0.0
  0
ENDTAB
  0
TABLE
  2
LAYER
  5
A50
330
0
100
AcDbSymbolTable
 70
3
  0
LAYER
  5
A51
330
A50
100
AcDbSymbolTableRecord
100
AcDbLayerTableRecord
  2
0
 70
   0
 62
   7
  6
CONTINUOUS
  0
LAYER
  5
A52
330
A50
100
AcDbSymbolTableRecord
100
AcDbLayerTableRecord
  2
none
 70
    0
 62
    7
  6
CONTINUOUS
  0
LAYER
  5
A53
330
A50
100
AcDbSymbolTableRecord
100
AcDbLayerTableRecord
  2
Sketch001
 70
    0
 62
    7
  6
CONTINUOUS
  0
ENDTAB
  0
TABLE
  2
STYLE
  5
70
330
0
100
AcDbSymbolTable
 70
     2
  0
STYLE
  5
71
330
70
100
AcDbSymbolTableRecord
100
AcDbTextStyleTableRecord
  2
STANDARD
 70
     0
 40
0.0
 41
1.0
 50
0.0
 71
     0
 42
2.5
  3
arial.ttf
  4

  0
STYLE
  5
72
330
70
100
AcDbSymbolTableRecord
100
AcDbTextStyleTableRecord
  2
ANNOTATIVE
 70
     0
 40
0.0
 41
1.0
 50
0.0
 71
     0
 42
2.5
  3
arial.ttf
  4

  0
ENDTAB
  0
TABLE
  2
VIEW
  5
73
330
0
100
AcDbSymbolTable
 70
     0
  0
ENDTAB
  0
TABLE
  2
UCS
  5
74
330
0
100
AcDbSymbolTable
 70
     0
  0
ENDTAB
  0
TABLE
  2
APPID
  5
75
330
0
100
AcDbSymbolTable
 70
     2
  0
APPID
  5
76
330
75
100
AcDbSymbolTableRecord
100
AcDbRegAppTableRecord
  2
ACAD
 70
     0
  0
APPID
  5
77
330
75
100
AcDbSymbolTableRecord
100
AcDbRegAppTableRecord
  2
ACADANNOTATIVE
 70
     0
  0
ENDTAB
  0
TABLE
  2
DIMSTYLE
  5
78
330
0
100
AcDbSymbolTable
 70
     2
  0
DIMSTYLE
105
79
330
78
100
AcDbSymbolTableRecord
100
AcDbDimStyleTableRecord
  2
STANDARD
 70
     0
  3

  4

  5

  6

  7

 40
0.0
 41
2.5
 42
0.625
 43
3.75
 44
1.25
 45
0.0
 46
0.0
 47
0.0
 48
0.0
140
2.5
141
2.5
142
0.0
143
0.03937007874016
144
1.0
145
0.0
146
1.0
147
0.625
 71
     0
 72
     0
 73
     0
 74
     0
 75
     0
 76
     0
 77
     1
 78
     8
170
     0
171
     3
172
     1
173
     0
174
     0
175
     0
176
     0
177
     0
178
     0
270
     2
271
     2
272
     2
273
     2
274
     3
340
71
275
     0
280
     0
281
     0
282
     0
283
     0
284
     8
285
     0
286
     0
287
     3
288
     0
  0
ENDTAB
  0
TABLE
  2
BLOCK_RECORD
  5
A01
330
0
100
AcDbSymbolTable
  70
5
  0
BLOCK_RECORD
  5
A02
330
A01
100
AcDbSymbolTableRecord
100
AcDbBlockTableRecord
  2
*MODEL_SPACE
  0
BLOCK_RECORD
  5
A03
330
A01
100
AcDbSymbolTableRecord
100
AcDbBlockTableRecord
  2
*PAPER_SPACE
  0
ENDTAB
  0
ENDSEC
  0
SECTION
  2
BLOCKS
  0
BLOCK
  5
A04
330
A02
100
AcDbEntity
  8
0
100
AcDbBlockBegin
  2
*MODEL_SPACE
 70
   0
 10
0
 20
0
 30
0
  3
*MODEL_SPACE
  1
 
  0
ENDBLK
  5
A05
330
A02
100
AcDbEntity
  8
0
100
AcDbBlockEnd
  0
BLOCK
  5
A06
330
A03
100
AcDbEntity
 67
1
  8
0
100
AcDbBlockBegin
  2
*PAPER_SPACE
 70
   0
 10
0
 20
0
 30
0
  3
*PAPER_SPACE
  1
 
  0
ENDBLK
  5
A07
330
A03
100
AcDbEntity
 67
    1
  8
0
100
AcDbBlockEnd
  0
ENDSEC
  0
SECTION
  2
ENTITIES
  0
LINE
  5
A08
330
A02
100
AcDbEntity
  8
Sketch001
100
AcDbLine
 10
-7
 20
7
 30
0
 11
7
 21
7
 31
0
  0
LINE
  5
A09
330
A02
100
AcDbEntity
  8
Sketch001
100
AcDbLine
 10
7
 20
7
 30
0
 11
7
 21
-7
 31
0
  0
LINE
  5
A0A
330
A02
100
AcDbEntity
  8
Sketch001
100
AcDbLine
 10
7
 20
-7
 30
0
 11
-7
 21
-7
 31
0
  0
LINE
  5
A0B
330
A02
100
AcDbEntity
  8
Sketch001
100
AcDbLine
 10
-7
 20
-7
 30
0
 11
-7
 21
7
 31
0
  0
LINE
  5
A0C
330
A02
100
AcDbEntity
  8
Sketch001
100
AcDbLine
 10
-7
 20
26
 30
0
 11
7
 21
26
 31
0
  0
LINE
  5
A0D
330
A02
100
AcDbEntity
  8
Sketch001
100
AcDbLine
 10
7
 20
26
 30
0
 11
7
 21
12
 31
0
  0
LINE
  5
A0E
330
A02
100
AcDbEntity
  8
Sketch001
100
AcDbLine
 10
7
 20
12
 30
0
 11
-7
 21
12
 31
0
  0
LINE
  5
A0F
330
A02
100
AcDbEntity
  8
Sketch001
100
AcDbLine
 10
-7
 20
12
 30
0
 11
-7
 21
26
 31
0
  0
LINE
  5
A10
330
A02
100
AcDbEntity
  8
Sketch001
100
AcDbLine
 10
-7
 20
45
 30
0
 11
7
 21
45
 31
0
  0
LINE
  5
A11
330
A02
100
AcDbEntity
  8
Sketch001
100
AcDbLine
 10
7
 20
45
 30
0
 11
7
 21
31
 31
0
  0
LINE
  5
A12
330
A02
100
AcDbEntity
  8
Sketch001
100
AcDbLine
 10
7
 20
31
 30
0
 11
-7
 21
31
 31
0
  0
LINE
  5
A13
330
A02
100
AcDbEntity
  8
Sketch001
100
AcDbLine
 10
-7
 20
31
 30
0
 11
-7
 21
45
 31
0
  0
LINE
  5
A14
330
A02
100
AcDbEntity
  8
Sketch001
100
AcDbLine
 10
-26
 20
9.5
 30
0
 11
-12
 21
9.5
 31
0
  0
LINE
  5
A15
330
A02
100
AcDbEntity
  8
Sketch001
100
AcDbLine
 10
-12
 20
9.5
 30
0
 11
-12
 21
-4.5
 31
0
  0
LINE
  5
A16
330
A02
100
AcDbEntity
  8
Sketch001
100
AcDbLine
 10
-12
 20
-4.5
 30
0
 11
-26
 21
-4.5
 31
0
  0
LINE
  5
A17
330
A02
100
AcDbEntity
  8
Sketch001
100
AcDbLine
 10
-26
 20
-4.5
 30
0
 11
-26
 21
9.5
 31
0
  0
LINE
  5
A18
330
A02
100
AcDbEntity
  8
Sketch001
100
AcDbLine
 10
-26
 20
28.5
 30
0
 11
-12
 21
28.5
 31
0
  0
LINE
  5
A19
330
A02
100
AcDbEntity
  8
Sketch001
100
AcDbLine
 10
-12
 20
28.5
 30
0
 11
-12
 21
14.5
 31
0
  0
LINE
  5
A1A
330
A02
100
AcDbEntity
  8
Sketch001
100
AcDbLine
 10
-12
 20
14.5
 30
0
 11
-26
 21
14.5
 31
0
  0
LINE
  5
A1B
330
A02
100
AcDbEntity
  8
Sketch001
100
AcDbLine
 10
-26
 20
14.5
 30
0
 11
-26
 21
28.5
 31
0
  0
LINE
  5
A1C
330
A02
100
AcDbEntity
  8
Sketch001
100
AcDbLine
 10
-26
 20
47.5
 30
0
 11
-12
 21
47.5
 31
0
  0
LINE
  5
A1D
330
A02
100
AcDbEntity
  8
Sketch001
100
AcDbLine
 10
-12
 20
47.5
 30
0
 11
-12
 21
33.5
 31
0
  0
LINE
  5
A1E
330
A02
100
AcDbEntity
  8
Sketch001
100
AcDbLine
 10
-12
 20
33.5
 30
0
 11
-26
 21
33.5
 31
0
  0
LINE
  5
A1F
330
A02
100
AcDbEntity
  8
Sketch001
100
AcDbLine
 10
-26
 20
33.5
 30
0
 11
-26
 21
47.5
 31
0
  0
LINE
  5
A20
330
A02
100
AcDbEntity
  8
Sketch001
100
AcDbLine
 10
-45
 20
16
 30
0
 11
-31
 21
16
 31
0
  0
LINE
  5
A21
330
A02
100
AcDbEntity
  8
Sketch001
100
AcDbLine
 10
-31
 20
16
 30
0
 11
-31
 21
2
 31
0
  0
LINE
  5
A22
330
A02
100
AcDbEntity
  8
Sketch001
100
AcDbLine
 10
-31
 20
2
 30
0
 11
-45
 21
2
 31
0
  0
LINE
  5
A23
330
A02
100
AcDbEntity
  8
Sketch001
100
AcDbLine
 10
-45
 20
2
 30
0
 11
-45
 21
16
 31
0
  0
LINE
  5
A24
330
A02
100
AcDbEntity
  8
Sketch001
100
AcDbLine
 10
-45
 20
35
 30
0
 11
-31
 21
35
 31
0
  0
LINE
  5
A25
330
A02
100
AcDbEntity
  8
Sketch001
100
AcDbLine
 10
-31
 20
35
 30
0
 11
-31
 21
21
 31
0
  0
LINE
  5
A26
330
A02
100
AcDbEntity
  8
Sketch001
100
AcDbLine
 10
-31
 20
21
 30
0
 11
-45
 21
21
 31
0
  0
LINE
  5
A27
330
A02
100
AcDbEntity
  8
Sketch001
100
AcDbLine
 10
-45
 20
21
 30
0
 11
-45
 21
35
 31
0
  0
LINE
  5
A28
330
A02
100
AcDbEntity
  8
Sketch001
100
AcDbLine
 10
-45
 20
54
 30
0
 11
-31
 21
54
 31
0
  0
LINE
  5
A29
330
A02
100
AcDbEntity
  8
Sketch001
100
AcDbLine
 10
-31
 20
54
 30
0
 11
-31
 21
40
 31
0
  0
LINE
  5
A2A
330
A02
100
AcDbEntity
  8
Sketch001
100
AcDbLine
 10
-31
 20
40
 30
0
 11
-45
 21
40
 31
0
  0
LINE
  5
A2B
330
A02
100
AcDbEntity
  8
Sketch001
100
AcDbLine
 10
-45
 20
40
 30
0
 11
-45
 21
54
 31
0
  0
LINE
  5
A2C
330
A02
100
AcDbEntity
  8
Sketch001
100
AcDbLine
 10
-64
 20
10
 30
0
 11
-50
 21
10
 31
0
  0
LINE
  5
A2D
330
A02
100
AcDbEntity
  8
Sketch001
100
AcDbLine
 10
-50
 20
10
 30
0
 11
-50
 21
-4
 31
0
  0
LINE
  5
A2E
330
A02
100
AcDbEntity
  8
Sketch001
100
AcDbLine
 10
-50
 20
-4
 30
0
 11
-64
 21
-4
 31
0
  0
LINE
  5
A2F
330
A02
100
AcDbEntity
  8
Sketch001
100
AcDbLine
 10
-64
 20
-4
 30
0
 11
-64
 21
10
 31
0
  0
LINE
  5
A30
330
A02
100
AcDbEntity
  8
Sketch001
100
AcDbLine
 10
-64
 20
29
 30
0
 11
-50
 21
29
 31
0
  0
LINE
  5
A31
330
A02
100
AcDbEntity
  8
Sketch001
100
AcDbLine
 10
-50
 20
29
 30
0
 11
-50
 21
15
 31
0
  0
LINE
  5
A32
330
A02
100
AcDbEntity
  8
Sketch001
100
AcDbLine
 10
-50
 20
15
 30
0
 11
-64
 21
15
 31
0
  0
LINE
  5
A33
330
A02
100
AcDbEntity
  8
Sketch001
100
AcDbLine
 10
-64
 20
15
 30
0
 11
-64
 21
29
 31
0
  0
LINE
  5
A34
330
A02
100
AcDbEntity
  8
Sketch001
100
AcDbLine
 10
-64
 20
48
 30
0
 11
-50
 21
48
 31
0
  0
LINE
  5
A35
330
A02
100
AcDbEntity
  8
Sketch001
100
AcDbLine
 10
-50
 20
48
 30
0
 11
-50
 21
34
 31
0
  0
LINE
  5
A36
330
A02
100
AcDbEntity
  8
Sketch001
100
AcDbLine
 10
-50
 20
34
 30
0
 11
-64
 21
34
 31
0
  0
LINE
  5
A37
330
A02
100
AcDbEntity
  8
Sketch001
100
AcDbLine
 10
-64
 20
34
 30
0
 11
-64
 21
48
 31
0
  0
LINE
  5
A38
330
A02
100
AcDbEntity
  8
Sketch001
100
AcDbLine
 10
-83.7044
 20
-3.94875
 30
0
 11
-69.9171
 21
-1.51768
 31
0
  0
LINE
  5
A39
330
A02
100
AcDbEntity
  8
Sketch001
100
AcDbLine
 10
-69.9171
 20
-1.51768
 30
0
 11
-67.486
 21
-15.305
 31
0
  0
LINE
  5
A3A
330
A02
100
AcDbEntity
  8
Sketch001
100
AcDbLine
 10
-67.486
 20
-15.305
 30
0
 11
-81.2733
 21
-17.7361
 31
0
  0
LINE
  5
A3B
330
A02
100
AcDbEntity
  8
Sketch001
100
AcDbLine
 10
-81.2733
 20
-17.7361
 30
0
 11
-83.7044
 21
-3.94875
 31
0
  0
LINE
  5
A3C
330
A02
100
AcDbEntity
  8
Sketch001
100
AcDbLine
 10
-87.0037
 20
14.7626
 30
0
 11
-73.2164
 21
17.1937
 31
0
  0
LINE
  5
A3D
330
A02
100
AcDbEntity
  8
Sketch001
100
AcDbLine
 10
-73.2164
 20
17.1937
 30
0
 11
-70.7853
 21
3.40636
 31
0
  0
LINE
  5
A3E
330
A02
100
AcDbEntity
  8
Sketch001
100
AcDbLine
 10
-70.7853
 20
3.40636
 30
0
 11
-84.5726
 21
0.975286
 31
0
  0
LINE
  5
A3F
330
A02
100
AcDbEntity
  8
Sketch001
100
AcDbLine
 10
-84.5726
 20
0.975286
 30
0
 11
-87.0037
 21
14.7626
 31
0
  0
LINE
  5
A40
330
A02
100
AcDbEntity
  8
Sketch001
100
AcDbLine
 10
-90.303
 20
33.4739
 30
0
 11
-76.5157
 21
35.905
 31
0
  0
LINE
  5
A41
330
A02
100
AcDbEntity
  8
Sketch001
100
AcDbLine
 10
-76.5157
 20
35.905
 30
0
 11
-74.0846
 21
22.1177
 31
0
  0
LINE
  5
A42
330
A02
100
AcDbEntity
  8
Sketch001
100
AcDbLine
 10
-74.0846
 20
22.1177
 30
0
 11
-87.8719
 21
19.6866
 31
0
  0
LINE
  5
A43
330
A02
100
AcDbEntity
  8
Sketch001
100
AcDbLine
 10
-87.8719
 20
19.6866
 30
0
 11
-90.303
 21
33.4739
 31
0
  0
LINE
  5
A44
330
A02
100
AcDbEntity
  8
Sketch001
100
AcDbLine
 10
-33.5116
 20
-9.19815
 30
0
 11
-19.5377
 21
-10.0528
 31
0
  0
LINE
  5
A45
330
A02
100
AcDbEntity
  8
Sketch001
100
AcDbLine
 10
-19.5377
 20
-10.0528
 30
0
 11
-20.3924
 21
-24.0267
 31
0
  0
LINE
  5
A46
330
A02
100
AcDbEntity
  8
Sketch001
100
AcDbLine
 10
-20.3924
 20
-24.0267
 30
0
 11
-34.3663
 21
-23.172
 31
0
  0
LINE
  5
A47
330
A02
100
AcDbEntity
  8
Sketch001
100
AcDbLine
 10
-34.3663
 20
-23.172
 30
0
 11
-33.5116
 21
-9.19815
 31
0
  0
LINE
  5
A48
330
A02
100
AcDbEntity
  8
Sketch001
100
AcDbLine
 10
-14.8856
 20
-25.0971
 30
0
 11
-10.4433
 21
-11.8206
 31
0
  0
LINE
  5
A49
330
A02
100
AcDbEntity
  8
Sketch001
100
AcDbLine
 10
-10.4433
 20
-11.8206
 30
0
 11
2.8332
 21
-16.2629
 31
0
  0
LINE
  5
A4A
330
A02
100
AcDbEntity
  8
Sketch001
100
AcDbLine
 10
2.8332
 20
-16.2629
 30
0
 11
-1.60907
 21
-29.5394
 31
0
  0
LINE
  5
A4B
330
A02
100
AcDbEntity
  8
Sketch001
100
AcDbLine
 10
-1.60907
 20
-29.5394
 30
0
 11
-14.8856
 21
-25.0971
 31
0
  0
LINE
  5
A4C
330
A02
100
AcDbEntity
  8
Sketch001
100
AcDbLine
 10
3.43304
 20
-31.9986
 30
0
 11
11.1602
 21
-20.3242
 31
0
  0
LINE
  5
A4D
330
A02
100
AcDbEntity
  8
Sketch001
100
AcDbLine
 10
11.1602
 20
-20.3242
 30
0
 11
22.8346
 21
-28.0513
 31
0
  0
LINE
  5
A4E
330
A02
100
AcDbEntity
  8
Sketch001
100
AcDbLine
 10
22.8346
 20
-28.0513
 30
0
 11
15.1074
 21
-39.7257
 31
0
  0
LINE
  5
A4F
330
A02
100
AcDbEntity
  8
Sketch001
100
AcDbLine
 10
15.1074
 20
-39.7257
 30
0
 11
3.43304
 21
-31.9986
 31
0
  0
ENDSEC
  0
SECTION
  2
OBJECTS
  0
DICTIONARY
  5
F000
330
0
100
AcDbDictionary
  3
ACAD_GROUP
350
F001
  0
DICTIONARY
  5
F001
330
F000
100
AcDbDictionary
  0
ENDSEC
  0
EOF