G04 #@! TF.GenerationSoftware,KiCad,Pcbnew,6.0.5*
G04 #@! TF.CreationDate,2022-06-07T20:26:54-03:00*
G04 #@! TF.ProjectId,tenax,74656e61-782e-46b6-9963-61645f706362,rev?*
G04 #@! TF.SameCoordinates,Original*
G04 #@! TF.FileFunction,Legend,Top*
G04 #@! TF.FilePolarity,Positive*
%FSLAX46Y46*%
G04 Gerber Fmt 4.6, Leading zero omitted, Abs format (unit mm)*
G04 Created by KiCad (PCBNEW 6.0.5) date 2022-06-07 20:26:54*
%MOMM*%
%LPD*%
G01*
G04 APERTURE LIST*
%ADD10C,0.250000*%
%ADD11C,0.100000*%
%ADD12C,4.100000*%
%ADD13C,3.000000*%
%ADD14C,1.900000*%
%ADD15C,4.300000*%
%ADD16C,1.200000*%
%ADD17C,0.300000*%
%ADD18C,2.082800*%
G04 APERTURE END LIST*
D10*
X140802334Y-99637335D02*
X140754715Y-99684954D01*
X140611858Y-99780192D01*
X140516620Y-99827811D01*
X140373762Y-99875430D01*
X140135667Y-99923049D01*
X139945191Y-99923049D01*
X139707096Y-99875430D01*
X139564239Y-99827811D01*
X139469001Y-99780192D01*
X139326143Y-99684954D01*
X139278524Y-99637335D01*
X140373762Y-98827811D02*
X140421381Y-98923049D01*
X140421381Y-99113525D01*
X140373762Y-99208763D01*
X140326143Y-99256382D01*
X140230905Y-99304002D01*
X139945191Y-99304002D01*
X139849953Y-99256382D01*
X139802334Y-99208763D01*
X139754715Y-99113525D01*
X139754715Y-98923049D01*
X139802334Y-98827811D01*
X140802334Y-98494478D02*
X140754715Y-98446859D01*
X140611858Y-98351621D01*
X140516620Y-98304002D01*
X140373762Y-98256382D01*
X140135667Y-98208763D01*
X139945191Y-98208763D01*
X139707096Y-98256382D01*
X139564239Y-98304002D01*
X139469001Y-98351621D01*
X139326143Y-98446859D01*
X139278524Y-98494478D01*
X140326143Y-96399240D02*
X140373762Y-96446859D01*
X140421381Y-96589716D01*
X140421381Y-96684954D01*
X140373762Y-96827811D01*
X140278524Y-96923049D01*
X140183286Y-96970668D01*
X139992810Y-97018287D01*
X139849953Y-97018287D01*
X139659477Y-96970668D01*
X139564239Y-96923049D01*
X139469001Y-96827811D01*
X139421381Y-96684954D01*
X139421381Y-96589716D01*
X139469001Y-96446859D01*
X139516620Y-96399240D01*
X140421381Y-95542097D02*
X139897572Y-95542097D01*
X139802334Y-95589716D01*
X139754715Y-95684954D01*
X139754715Y-95875430D01*
X139802334Y-95970668D01*
X140373762Y-95542097D02*
X140421381Y-95637335D01*
X140421381Y-95875430D01*
X140373762Y-95970668D01*
X140278524Y-96018287D01*
X140183286Y-96018287D01*
X140088048Y-95970668D01*
X140040429Y-95875430D01*
X140040429Y-95637335D01*
X139992810Y-95542097D01*
X139373762Y-95684954D02*
X139516620Y-95827811D01*
X140373762Y-95113525D02*
X140421381Y-95018287D01*
X140421381Y-94827811D01*
X140373762Y-94732573D01*
X140278524Y-94684954D01*
X140230905Y-94684954D01*
X140135667Y-94732573D01*
X140088048Y-94827811D01*
X140088048Y-94970668D01*
X140040429Y-95065906D01*
X139945191Y-95113525D01*
X139897572Y-95113525D01*
X139802334Y-95065906D01*
X139754715Y-94970668D01*
X139754715Y-94827811D01*
X139802334Y-94732573D01*
X140373762Y-94304002D02*
X140421381Y-94208763D01*
X140421381Y-94018287D01*
X140373762Y-93923049D01*
X140278524Y-93875430D01*
X140230905Y-93875430D01*
X140135667Y-93923049D01*
X140088048Y-94018287D01*
X140088048Y-94161144D01*
X140040429Y-94256382D01*
X139945191Y-94304002D01*
X139897572Y-94304002D01*
X139802334Y-94256382D01*
X139754715Y-94161144D01*
X139754715Y-94018287D01*
X139802334Y-93923049D01*
X140421381Y-93446859D02*
X139754715Y-93446859D01*
X139421381Y-93446859D02*
X139469001Y-93494478D01*
X139516620Y-93446859D01*
X139469001Y-93399240D01*
X139421381Y-93446859D01*
X139516620Y-93446859D01*
X140421381Y-92827811D02*
X140373762Y-92923049D01*
X140326143Y-92970668D01*
X140230905Y-93018287D01*
X139945191Y-93018287D01*
X139849953Y-92970668D01*
X139802334Y-92923049D01*
X139754715Y-92827811D01*
X139754715Y-92684954D01*
X139802334Y-92589716D01*
X139849953Y-92542097D01*
X139945191Y-92494478D01*
X140230905Y-92494478D01*
X140326143Y-92542097D01*
X140373762Y-92589716D01*
X140421381Y-92684954D01*
X140421381Y-92827811D01*
X140135667Y-91351621D02*
X140135667Y-90875430D01*
X140421381Y-91446859D02*
X139421381Y-91113525D01*
X140421381Y-90780192D01*
X139040429Y-91018287D02*
X139183286Y-91161144D01*
X139754715Y-90542097D02*
X140421381Y-90304002D01*
X139754715Y-90065906D01*
X140421381Y-89684954D02*
X139754715Y-89684954D01*
X139421381Y-89684954D02*
X139469001Y-89732573D01*
X139516620Y-89684954D01*
X139469001Y-89637335D01*
X139421381Y-89684954D01*
X139516620Y-89684954D01*
X140421381Y-89065906D02*
X140373762Y-89161144D01*
X140278524Y-89208763D01*
X139421381Y-89208763D01*
X140421381Y-88256382D02*
X139897572Y-88256382D01*
X139802334Y-88304002D01*
X139754715Y-88399240D01*
X139754715Y-88589716D01*
X139802334Y-88684954D01*
X140373762Y-88256382D02*
X140421381Y-88351621D01*
X140421381Y-88589716D01*
X140373762Y-88684954D01*
X140278524Y-88732573D01*
X140183286Y-88732573D01*
X140088048Y-88684954D01*
X140040429Y-88589716D01*
X140040429Y-88351621D01*
X139992810Y-88256382D01*
X139516620Y-87065906D02*
X139469001Y-87018287D01*
X139421381Y-86923049D01*
X139421381Y-86684954D01*
X139469001Y-86589716D01*
X139516620Y-86542097D01*
X139611858Y-86494478D01*
X139707096Y-86494478D01*
X139849953Y-86542097D01*
X140421381Y-87113525D01*
X140421381Y-86494478D01*
X139421381Y-85875430D02*
X139421381Y-85780192D01*
X139469001Y-85684954D01*
X139516620Y-85637335D01*
X139611858Y-85589716D01*
X139802334Y-85542097D01*
X140040429Y-85542097D01*
X140230905Y-85589716D01*
X140326143Y-85637335D01*
X140373762Y-85684954D01*
X140421381Y-85780192D01*
X140421381Y-85875430D01*
X140373762Y-85970668D01*
X140326143Y-86018287D01*
X140230905Y-86065906D01*
X140040429Y-86113525D01*
X139802334Y-86113525D01*
X139611858Y-86065906D01*
X139516620Y-86018287D01*
X139469001Y-85970668D01*
X139421381Y-85875430D01*
X139516620Y-85161144D02*
X139469001Y-85113525D01*
X139421381Y-85018287D01*
X139421381Y-84780192D01*
X139469001Y-84684954D01*
X139516620Y-84637335D01*
X139611858Y-84589716D01*
X139707096Y-84589716D01*
X139849953Y-84637335D01*
X140421381Y-85208763D01*
X140421381Y-84589716D01*
X139516620Y-84208763D02*
X139469001Y-84161144D01*
X139421381Y-84065906D01*
X139421381Y-83827811D01*
X139469001Y-83732573D01*
X139516620Y-83684954D01*
X139611858Y-83637335D01*
X139707096Y-83637335D01*
X139849953Y-83684954D01*
X140421381Y-84256382D01*
X140421381Y-83637335D01*
X141936143Y-97399240D02*
X141983762Y-97446859D01*
X142031381Y-97589716D01*
X142031381Y-97684954D01*
X141983762Y-97827811D01*
X141888524Y-97923049D01*
X141793286Y-97970668D01*
X141602810Y-98018287D01*
X141459953Y-98018287D01*
X141269477Y-97970668D01*
X141174239Y-97923049D01*
X141079001Y-97827811D01*
X141031381Y-97684954D01*
X141031381Y-97589716D01*
X141079001Y-97446859D01*
X141126620Y-97399240D01*
X141507572Y-96970668D02*
X141507572Y-96637335D01*
X142031381Y-96494478D02*
X142031381Y-96970668D01*
X141031381Y-96970668D01*
X141031381Y-96494478D01*
X142031381Y-95494478D02*
X141555191Y-95827811D01*
X142031381Y-96065906D02*
X141031381Y-96065906D01*
X141031381Y-95684954D01*
X141079001Y-95589716D01*
X141126620Y-95542097D01*
X141221858Y-95494478D01*
X141364715Y-95494478D01*
X141459953Y-95542097D01*
X141507572Y-95589716D01*
X141555191Y-95684954D01*
X141555191Y-96065906D01*
X142031381Y-95065906D02*
X141031381Y-95065906D01*
X142031381Y-94494478D01*
X141031381Y-94494478D01*
X141650429Y-94018287D02*
X141650429Y-93256382D01*
X141031381Y-92589716D02*
X141031381Y-92399240D01*
X141079001Y-92304002D01*
X141174239Y-92208763D01*
X141364715Y-92161144D01*
X141698048Y-92161144D01*
X141888524Y-92208763D01*
X141983762Y-92304002D01*
X142031381Y-92399240D01*
X142031381Y-92589716D01*
X141983762Y-92684954D01*
X141888524Y-92780192D01*
X141698048Y-92827811D01*
X141364715Y-92827811D01*
X141174239Y-92780192D01*
X141079001Y-92684954D01*
X141031381Y-92589716D01*
X142031381Y-91732573D02*
X141031381Y-91732573D01*
X141507572Y-91732573D02*
X141507572Y-91161144D01*
X142031381Y-91161144D02*
X141031381Y-91161144D01*
X142031381Y-90208763D02*
X142031381Y-90684954D01*
X141031381Y-90684954D01*
X141650429Y-89875430D02*
X141650429Y-89113525D01*
X142031381Y-88637335D02*
X141031381Y-88637335D01*
X141031381Y-88256382D01*
X141079001Y-88161144D01*
X141126620Y-88113525D01*
X141221858Y-88065906D01*
X141364715Y-88065906D01*
X141459953Y-88113525D01*
X141507572Y-88161144D01*
X141555191Y-88256382D01*
X141555191Y-88637335D01*
X141364715Y-86970668D02*
X142031381Y-86732573D01*
X141364715Y-86494478D01*
X141126620Y-86161144D02*
X141079001Y-86113525D01*
X141031381Y-86018287D01*
X141031381Y-85780192D01*
X141079001Y-85684954D01*
X141126620Y-85637335D01*
X141221858Y-85589716D01*
X141317096Y-85589716D01*
X141459953Y-85637335D01*
X142031381Y-86208763D01*
X142031381Y-85589716D01*
D11*
X196365476Y-89336904D02*
X196365476Y-89908333D01*
X196341666Y-90022619D01*
X196294047Y-90098809D01*
X196222619Y-90136904D01*
X196175000Y-90136904D01*
X196841666Y-90136904D02*
X196603571Y-90136904D01*
X196603571Y-89336904D01*
X197294047Y-90060714D02*
X197270238Y-90098809D01*
X197198809Y-90136904D01*
X197151190Y-90136904D01*
X197079761Y-90098809D01*
X197032142Y-90022619D01*
X197008333Y-89946428D01*
X196984523Y-89794047D01*
X196984523Y-89679761D01*
X197008333Y-89527380D01*
X197032142Y-89451190D01*
X197079761Y-89375000D01*
X197151190Y-89336904D01*
X197198809Y-89336904D01*
X197270238Y-89375000D01*
X197294047Y-89413095D01*
X197651190Y-89336904D02*
X197651190Y-89908333D01*
X197627380Y-90022619D01*
X197579761Y-90098809D01*
X197508333Y-90136904D01*
X197460714Y-90136904D01*
X198127380Y-90136904D02*
X197889285Y-90136904D01*
X197889285Y-89336904D01*
X198579761Y-90060714D02*
X198555952Y-90098809D01*
X198484523Y-90136904D01*
X198436904Y-90136904D01*
X198365476Y-90098809D01*
X198317857Y-90022619D01*
X198294047Y-89946428D01*
X198270238Y-89794047D01*
X198270238Y-89679761D01*
X198294047Y-89527380D01*
X198317857Y-89451190D01*
X198365476Y-89375000D01*
X198436904Y-89336904D01*
X198484523Y-89336904D01*
X198555952Y-89375000D01*
X198579761Y-89413095D01*
X198936904Y-89336904D02*
X198936904Y-89908333D01*
X198913095Y-90022619D01*
X198865476Y-90098809D01*
X198794047Y-90136904D01*
X198746428Y-90136904D01*
X199413095Y-90136904D02*
X199175000Y-90136904D01*
X199175000Y-89336904D01*
X199865476Y-90060714D02*
X199841666Y-90098809D01*
X199770238Y-90136904D01*
X199722619Y-90136904D01*
X199651190Y-90098809D01*
X199603571Y-90022619D01*
X199579761Y-89946428D01*
X199555952Y-89794047D01*
X199555952Y-89679761D01*
X199579761Y-89527380D01*
X199603571Y-89451190D01*
X199651190Y-89375000D01*
X199722619Y-89336904D01*
X199770238Y-89336904D01*
X199841666Y-89375000D01*
X199865476Y-89413095D01*
X200222619Y-89336904D02*
X200222619Y-89908333D01*
X200198809Y-90022619D01*
X200151190Y-90098809D01*
X200079761Y-90136904D01*
X200032142Y-90136904D01*
X200698809Y-90136904D02*
X200460714Y-90136904D01*
X200460714Y-89336904D01*
X201151190Y-90060714D02*
X201127380Y-90098809D01*
X201055952Y-90136904D01*
X201008333Y-90136904D01*
X200936904Y-90098809D01*
X200889285Y-90022619D01*
X200865476Y-89946428D01*
X200841666Y-89794047D01*
X200841666Y-89679761D01*
X200865476Y-89527380D01*
X200889285Y-89451190D01*
X200936904Y-89375000D01*
X201008333Y-89336904D01*
X201055952Y-89336904D01*
X201127380Y-89375000D01*
X201151190Y-89413095D01*
%LPC*%
D12*
X82548998Y-79629002D03*
D13*
X78738998Y-77089002D03*
X85088998Y-74549002D03*
D14*
X77468998Y-79629002D03*
X87628998Y-79629002D03*
D13*
X204088999Y-61999001D03*
D12*
X201548999Y-67079001D03*
D14*
X196468999Y-67079001D03*
D13*
X197738999Y-64539001D03*
D14*
X206628999Y-67079001D03*
D15*
X253879898Y-87515700D03*
D14*
X215518999Y-60579002D03*
D12*
X220598999Y-60579002D03*
D14*
X225678999Y-60579002D03*
D13*
X223138999Y-55499002D03*
X216788999Y-58039002D03*
D15*
X126686109Y-122411002D03*
D13*
X264989750Y-93988250D03*
X258295155Y-95386996D03*
D14*
X256603383Y-97667874D03*
X266609029Y-99432140D03*
D12*
X261606206Y-98550007D03*
D15*
X111124000Y-76604001D03*
D16*
X142873997Y-116654002D03*
X149873997Y-116654002D03*
D17*
X151574000Y-115466501D03*
X151574000Y-114279001D03*
X151574000Y-118435251D03*
X151574000Y-116654001D03*
X151574000Y-114872751D03*
X151574000Y-117841501D03*
X151574000Y-117247751D03*
X151574000Y-116060251D03*
X151574000Y-119029001D03*
D14*
X68578999Y-104679000D03*
D12*
X63498999Y-104679000D03*
D13*
X59688999Y-102139000D03*
X66038999Y-99599000D03*
D14*
X58418999Y-104679000D03*
D12*
X220598998Y-98679001D03*
D14*
X215518998Y-98679001D03*
D13*
X223138998Y-93599001D03*
X216788998Y-96139001D03*
D14*
X225678998Y-98679001D03*
D15*
X176461888Y-122411000D03*
X52576099Y-106276300D03*
D12*
X120649000Y-107679001D03*
D14*
X125729000Y-107679001D03*
D13*
X116839000Y-105139001D03*
D14*
X115569000Y-107679001D03*
D13*
X123189000Y-102599001D03*
D12*
X82548998Y-60579001D03*
D13*
X78738998Y-58039001D03*
D14*
X87628998Y-60579001D03*
D13*
X85088998Y-55499001D03*
D14*
X77468998Y-60579001D03*
D13*
X104138999Y-100099002D03*
D14*
X96518999Y-105179002D03*
D13*
X97788999Y-102639002D03*
D12*
X101598999Y-105179002D03*
D14*
X106678999Y-105179002D03*
D13*
X254987153Y-114147598D03*
D14*
X263301027Y-118192742D03*
X253295381Y-116428476D03*
D13*
X261681748Y-112748852D03*
D12*
X258298204Y-117310609D03*
X120648999Y-88628999D03*
D13*
X123188999Y-83548999D03*
X116838999Y-86088999D03*
D14*
X125728999Y-88628999D03*
X115568999Y-88628999D03*
D12*
X239648999Y-104679003D03*
D14*
X234568999Y-104679003D03*
X244728999Y-104679003D03*
D13*
X242188999Y-99599003D03*
X235838999Y-102139003D03*
D12*
X264914204Y-79789409D03*
D13*
X261603153Y-76626398D03*
X268297748Y-75227652D03*
D14*
X269917027Y-80671542D03*
X259911381Y-78907276D03*
D12*
X44849805Y-117310607D03*
D14*
X49852628Y-116428474D03*
D13*
X40656621Y-115470795D03*
X46469084Y-111866717D03*
D14*
X39846982Y-118192740D03*
D12*
X82549000Y-98679002D03*
D14*
X77469000Y-98679002D03*
X87629000Y-98679002D03*
D13*
X78739000Y-96139002D03*
X85089000Y-93599002D03*
D14*
X58418999Y-66579000D03*
D13*
X59688999Y-64039000D03*
D12*
X63498999Y-66579000D03*
D14*
X68578999Y-66579000D03*
D13*
X66038999Y-61499000D03*
D14*
X234568998Y-66579000D03*
D13*
X242188998Y-61499000D03*
X235838998Y-64039000D03*
D12*
X239648998Y-66579000D03*
D14*
X244728998Y-66579000D03*
D13*
X66039000Y-80549002D03*
D12*
X63499000Y-85629002D03*
D14*
X58419000Y-85629002D03*
X68579000Y-85629002D03*
D13*
X59689000Y-83089002D03*
D14*
X36538982Y-99432139D03*
X46544628Y-97667873D03*
D13*
X43161084Y-93106116D03*
D12*
X41541805Y-98550006D03*
D13*
X37348621Y-96710194D03*
D14*
X187578998Y-88629000D03*
D13*
X178688998Y-86089000D03*
D12*
X182498998Y-88629000D03*
D14*
X177418998Y-88629000D03*
D13*
X185038998Y-83549000D03*
D17*
X151573999Y-66147751D03*
X151573999Y-64960251D03*
X151573999Y-63772751D03*
X151573999Y-66741501D03*
X151573999Y-64366501D03*
X151573999Y-63179001D03*
X151573999Y-65554001D03*
X151573999Y-67929001D03*
X151573999Y-67335251D03*
D13*
X96495567Y-119427738D03*
X90002348Y-121575342D03*
D14*
X88579653Y-124033072D03*
D12*
X93650178Y-124343199D03*
D14*
X98720703Y-124653326D03*
D15*
X218423598Y-114254481D03*
D14*
X173542677Y-134987224D03*
X165070397Y-140594904D03*
D13*
X164727512Y-137775874D03*
X168620767Y-132153004D03*
D12*
X169306537Y-137791064D03*
D14*
X214568376Y-124033076D03*
D12*
X209497851Y-124343203D03*
D13*
X205539894Y-122040536D03*
X211722987Y-119117615D03*
D14*
X204427326Y-124653330D03*
D13*
X34040622Y-77949595D03*
D12*
X38233806Y-79789407D03*
D13*
X39853085Y-74345517D03*
D14*
X33230983Y-80671540D03*
X43236629Y-78907274D03*
D13*
X204089001Y-81049000D03*
D14*
X196469001Y-86129000D03*
X206629001Y-86129000D03*
D13*
X197739001Y-83589000D03*
D12*
X201549001Y-86129000D03*
D14*
X234568999Y-85629001D03*
D13*
X242188999Y-80549001D03*
X235838999Y-83089001D03*
D12*
X239648999Y-85629001D03*
D14*
X244728999Y-85629001D03*
X196468999Y-105179002D03*
D13*
X197738999Y-102639002D03*
D12*
X201548999Y-105179002D03*
D14*
X206628999Y-105179002D03*
D13*
X204088999Y-100099002D03*
D15*
X192024000Y-76604001D03*
D12*
X120648999Y-69579002D03*
D14*
X125728999Y-69579002D03*
D13*
X116838999Y-67039002D03*
D14*
X115568999Y-69579002D03*
D13*
X123188999Y-64499002D03*
D15*
X250571899Y-106276302D03*
D16*
X160273998Y-116654000D03*
X153273998Y-116654000D03*
D14*
X225678999Y-79629003D03*
D13*
X223138999Y-74549003D03*
D14*
X215518999Y-79629003D03*
D12*
X220598999Y-79629003D03*
D13*
X216788999Y-77089003D03*
D15*
X49268100Y-87515702D03*
D14*
X187578999Y-69579002D03*
D13*
X185038999Y-64499002D03*
D14*
X177418999Y-69579002D03*
D12*
X182498999Y-69579002D03*
D13*
X178688999Y-67039002D03*
X97788999Y-83589002D03*
D14*
X96518999Y-86129002D03*
X106678999Y-86129002D03*
D13*
X104138999Y-81049002D03*
D12*
X101598999Y-86129002D03*
D14*
X193334525Y-126809561D03*
D13*
X189313875Y-122798031D03*
X184097974Y-127221658D03*
D14*
X183699557Y-130033377D03*
D12*
X188517041Y-128421469D03*
D14*
X119448484Y-130033365D03*
D12*
X114631000Y-128421457D03*
D14*
X109813516Y-126809549D03*
D13*
X118651650Y-124409927D03*
X111823841Y-124803784D03*
D15*
X84724398Y-114254480D03*
D12*
X182498999Y-107679002D03*
D14*
X177418999Y-107679002D03*
X187578999Y-107679002D03*
D13*
X185038999Y-102599002D03*
X178688999Y-105139002D03*
D14*
X106679000Y-67079000D03*
D13*
X97789000Y-64539000D03*
D12*
X101599000Y-67079000D03*
D13*
X104139000Y-61999000D03*
D14*
X96519000Y-67079000D03*
D12*
X133841437Y-137791064D03*
D13*
X132066252Y-133570114D03*
D14*
X138077577Y-140594904D03*
D13*
X138763347Y-134956844D03*
D14*
X129605297Y-134987224D03*
D18*
X148267001Y-61704002D03*
X148521001Y-64244002D03*
X148267001Y-66784002D03*
X148521001Y-69324002D03*
X148267001Y-71864002D03*
X148521001Y-74404002D03*
X148267001Y-76944002D03*
X148521001Y-79484002D03*
X148267001Y-82024002D03*
X148521001Y-84564002D03*
X148267001Y-87104002D03*
X148521001Y-89644002D03*
X148267001Y-92184002D03*
X148521001Y-94724002D03*
X148267001Y-97264002D03*
X148521001Y-99804002D03*
X148267001Y-102344002D03*
X148521001Y-104884002D03*
X148267001Y-107424002D03*
X148521001Y-109964002D03*
X133027001Y-109964002D03*
X133281001Y-107424002D03*
X133027001Y-104884002D03*
X133281001Y-102344002D03*
X133027001Y-99804002D03*
X133281001Y-97264002D03*
X133027001Y-94724002D03*
X133281001Y-92184002D03*
X133027001Y-89644002D03*
X133281001Y-87104002D03*
X133027001Y-84564002D03*
X133281001Y-82024002D03*
X133027001Y-79484002D03*
X133281001Y-76944002D03*
X133027001Y-74404002D03*
X133281001Y-71864002D03*
X133027001Y-69324002D03*
X133281001Y-66784002D03*
X133027001Y-64244002D03*
X133281001Y-61704002D03*
X169866997Y-61704001D03*
X170120997Y-64244001D03*
X169866997Y-66784001D03*
X170120997Y-69324001D03*
X169866997Y-71864001D03*
X170120997Y-74404001D03*
X169866997Y-76944001D03*
X170120997Y-79484001D03*
X169866997Y-82024001D03*
X170120997Y-84564001D03*
X169866997Y-87104001D03*
X170120997Y-89644001D03*
X169866997Y-92184001D03*
X170120997Y-94724001D03*
X169866997Y-97264001D03*
X170120997Y-99804001D03*
X169866997Y-102344001D03*
X170120997Y-104884001D03*
X169866997Y-107424001D03*
X170120997Y-109964001D03*
X154626997Y-109964001D03*
X154880997Y-107424001D03*
X154626997Y-104884001D03*
X154880997Y-102344001D03*
X154626997Y-99804001D03*
X154880997Y-97264001D03*
X154626997Y-94724001D03*
X154880997Y-92184001D03*
X154626997Y-89644001D03*
X154880997Y-87104001D03*
X154626997Y-84564001D03*
X154880997Y-82024001D03*
X154626997Y-79484001D03*
X154880997Y-76944001D03*
X154626997Y-74404001D03*
X154880997Y-71864001D03*
X154626997Y-69324001D03*
X154880997Y-66784001D03*
X154626997Y-64244001D03*
X154880997Y-61704001D03*
M02*
