M48
; DRILL file {KiCad 6.0.5} date Wed Jun  8 18:37:05 2022
; FORMAT={-:-/ absolute / inch / decimal}
; #@! TF.CreationDate,2022-06-08T18:37:05-03:00
; #@! TF.GenerationSoftware,Kicad,Pcbnew,6.0.5
; #@! TF.FileFunction,NonPlated,1,2,NPTH
FMAT,2
INCH
; #@! TA.AperFunction,NonPlated,NPTH,ComponentDrill
T1C0.0118
; #@! TA.AperFunction,NonPlated,NPTH,ComponentDrill
T2C0.0472
; #@! TA.AperFunction,NonPlated,NPTH,ComponentDrill
T3C0.0748
; #@! TA.AperFunction,NonPlated,NPTH,ComponentDrill
T4C0.1181
; #@! TA.AperFunction,NonPlated,NPTH,ComponentDrill
T5C0.1614
; #@! TA.AperFunction,NonPlated,NPTH,ComponentDrill
T6C0.1693
%
G90
G05
T1
X5.9675Y-2.4874
X5.9675Y-2.5107
X5.9675Y-2.5341
X5.9675Y-2.5575
X5.9675Y-2.5809
X5.9675Y-2.6042
X5.9675Y-2.6276
X5.9675Y-2.651
X5.9675Y-2.6744
X5.9675Y-4.4992
X5.9675Y-4.5225
X5.9675Y-4.5459
X5.9675Y-4.5693
X5.9675Y-4.5927
X5.9675Y-4.6161
X5.9675Y-4.6394
X5.9675Y-4.6628
X5.9675Y-4.6862
X5.9911Y-2.4874
X5.9911Y-2.5107
X5.9911Y-2.5341
X5.9911Y-2.5575
X5.9911Y-2.5809
X5.9911Y-2.6042
X5.9911Y-2.6276
X5.9911Y-2.651
X5.9911Y-2.6744
X5.9911Y-4.4992
X5.9911Y-4.5225
X5.9911Y-4.5459
X5.9911Y-4.5693
X5.9911Y-4.5927
X5.9911Y-4.6161
X5.9911Y-4.6394
X5.9911Y-4.6628
X5.9911Y-4.6862
T2
X5.625Y-4.5927
X5.9006Y-4.5927
X6.058Y-4.5927
X6.3336Y-4.5927
T3
X1.3083Y-3.176
X1.4385Y-3.9147
X1.5688Y-4.6533
X1.7022Y-3.1066
X1.8325Y-3.8452
X1.9627Y-4.5838
X2.3Y-2.6212
X2.3Y-4.1212
X2.3Y-3.3712
X2.7Y-2.6212
X2.7Y-4.1212
X2.7Y-3.3712
X3.05Y-2.385
X3.05Y-3.135
X3.05Y-3.885
X3.45Y-2.385
X3.45Y-3.135
X3.45Y-3.885
X3.4874Y-4.8832
X3.8Y-3.3909
X3.8Y-4.1409
X3.8Y-2.6409
X3.8866Y-4.9076
X4.2Y-3.3909
X4.2Y-4.1409
X4.2Y-2.6409
X4.3234Y-4.9925
X4.55Y-2.7393
X4.55Y-3.4893
X4.55Y-4.2393
X4.7027Y-5.1194
X4.95Y-2.7393
X4.95Y-3.4893
X4.95Y-4.2393
X5.1026Y-5.3145
X5.4361Y-5.5352
X6.5225Y-5.5352
X6.856Y-5.3145
X7.0086Y-3.4893
X7.0086Y-2.7393
X7.0086Y-4.2393
X7.2559Y-5.1194
X7.4086Y-3.4893
X7.4086Y-2.7393
X7.4086Y-4.2393
X7.6352Y-4.9925
X7.7586Y-2.6409
X7.7586Y-4.1409
X7.7586Y-3.3909
X8.0719Y-4.9076
X8.1586Y-2.6409
X8.1586Y-4.1409
X8.1586Y-3.3909
X8.4712Y-4.8832
X8.5086Y-3.885
X8.5086Y-2.385
X8.5086Y-3.135
X8.9086Y-3.885
X8.9086Y-2.385
X8.9086Y-3.135
X9.2586Y-2.6212
X9.2586Y-3.3712
X9.2586Y-4.1212
X9.6586Y-2.6212
X9.6586Y-3.3712
X9.6586Y-4.1212
X9.9959Y-4.5838
X10.1261Y-3.8452
X10.2564Y-3.1066
X10.3898Y-4.6533
X10.52Y-3.9147
X10.6503Y-3.176
T4
X1.3402Y-3.0689
X1.4704Y-3.8075
X1.569Y-2.927
X1.6007Y-4.5461
X1.6993Y-3.6656
X1.8295Y-4.4042
X2.35Y-2.5212
X2.35Y-4.0212
X2.35Y-3.2712
X2.6Y-2.4212
X2.6Y-3.9212
X2.6Y-3.1712
X3.1Y-2.285
X3.1Y-3.035
X3.1Y-3.785
X3.35Y-2.185
X3.35Y-2.935
X3.35Y-3.685
X3.5434Y-4.7864
X3.799Y-4.7019
X3.85Y-3.2909
X3.85Y-4.0409
X3.85Y-2.5409
X4.1Y-3.1909
X4.1Y-3.9409
X4.1Y-2.4409
X4.4025Y-4.9135
X4.6Y-2.6393
X4.6Y-3.3893
X4.6Y-4.1393
X4.6713Y-4.898
X4.85Y-2.5393
X4.85Y-3.2893
X4.85Y-4.0393
X5.1995Y-5.2587
X5.4631Y-5.3133
X6.509Y-5.4242
X6.6622Y-5.2029
X7.0586Y-3.3893
X7.0586Y-2.6393
X7.0586Y-4.1393
X7.2716Y-5.0087
X7.3086Y-3.2893
X7.3086Y-2.5393
X7.3086Y-4.0393
X7.4769Y-4.8346
X7.8086Y-2.5409
X7.8086Y-4.0409
X7.8086Y-3.2909
X8.0586Y-2.4409
X8.0586Y-3.9409
X8.0586Y-3.1909
X8.1157Y-4.8047
X8.3592Y-4.6897
X8.5586Y-3.785
X8.5586Y-2.285
X8.5586Y-3.035
X8.8086Y-3.685
X8.8086Y-2.185
X8.8086Y-2.935
X9.3086Y-2.5212
X9.3086Y-3.2712
X9.3086Y-4.0212
X9.5586Y-2.4212
X9.5586Y-3.1712
X9.5586Y-3.9212
X10.0625Y-4.494
X10.1927Y-3.7554
X10.323Y-3.0168
X10.3261Y-4.4389
X10.4563Y-3.7003
X10.5865Y-2.9617
T5
X1.5053Y-3.1413
X1.6355Y-3.8799
X1.7657Y-4.6185
X2.5Y-2.6212
X2.5Y-4.1212
X2.5Y-3.3712
X3.25Y-2.385
X3.25Y-3.135
X3.25Y-3.885
X3.687Y-4.8954
X4.0Y-3.3909
X4.0Y-4.1409
X4.0Y-2.6409
X4.513Y-5.056
X4.75Y-2.7393
X4.75Y-3.4893
X4.75Y-4.2393
X5.2693Y-5.4248
X6.6892Y-5.4248
X7.2086Y-3.4893
X7.2086Y-2.7393
X7.2086Y-4.2393
X7.4456Y-5.056
X7.9586Y-2.6409
X7.9586Y-4.1409
X7.9586Y-3.3909
X8.2716Y-4.8954
X8.7086Y-3.885
X8.7086Y-2.385
X8.7086Y-3.135
X9.4586Y-2.6212
X9.4586Y-3.3712
X9.4586Y-4.1212
X10.1928Y-4.6185
X10.3231Y-3.8799
X10.4533Y-3.1413
T6
X1.9397Y-3.4455
X2.0699Y-4.1841
X3.3356Y-4.4982
X4.375Y-3.0159
X4.9876Y-4.8193
X6.9709Y-4.8193
X7.5836Y-3.0159
X8.623Y-4.4982
X9.8887Y-4.1841
X10.0189Y-3.4455
T0
M30
