G04 #@! TF.GenerationSoftware,KiCad,Pcbnew,6.0.5*
G04 #@! TF.CreationDate,2022-06-08T18:37:02-03:00*
G04 #@! TF.ProjectId,tenax,74656e61-782e-46b6-9963-61645f706362,rev?*
G04 #@! TF.SameCoordinates,Original*
G04 #@! TF.FileFunction,Profile,NP*
%FSLAX46Y46*%
G04 Gerber Fmt 4.6, Leading zero omitted, Abs format (unit mm)*
G04 Created by KiCad (PCBNEW 6.0.5) date 2022-06-08 18:37:02*
%MOMM*%
%LPD*%
G01*
G04 APERTURE LIST*
G04 #@! TA.AperFunction,Profile*
%ADD10C,0.150000*%
G04 #@! TD*
G04 APERTURE END LIST*
D10*
X151374002Y-119154002D02*
X152373999Y-119153999D01*
X151374000Y-114154001D02*
X152374000Y-114154002D01*
X151373998Y-68054002D02*
X152373999Y-68054001D01*
X151373998Y-63054002D02*
X152373999Y-63054002D01*
X27373200Y-73047902D02*
X36949898Y-127360102D01*
X157473999Y-61054002D02*
G75*
G03*
X156474000Y-60054001I-999999J2D01*
G01*
X151373998Y-61054002D02*
X151373998Y-63054002D01*
X192623999Y-59054001D02*
X192623999Y-58554002D01*
X92073999Y-52054002D02*
X92074000Y-56554003D01*
X73309310Y-114720262D02*
G75*
G03*
X72434099Y-114204003I-875210J-483738D01*
G01*
X120751242Y-140549201D02*
X135693099Y-150439000D01*
X156792699Y-135235603D02*
X166669099Y-150157101D01*
X231724000Y-57054001D02*
X248773999Y-57054002D01*
X120751237Y-140549214D02*
G75*
G03*
X120516608Y-140434777I-551937J-833886D01*
G01*
X54180899Y-115377650D02*
X55710498Y-124052103D01*
X102700703Y-134473672D02*
G75*
G03*
X102444448Y-134423866I-317303J-948428D01*
G01*
X135274000Y-61054002D02*
X135273999Y-78054001D01*
X230723999Y-56054001D02*
X230724000Y-52054001D01*
X135693062Y-150439087D02*
G75*
G03*
X137078886Y-150157139I551938J833887D01*
G01*
X120516608Y-140434800D02*
X102700699Y-134473701D01*
X146955284Y-135235538D02*
G75*
G03*
X147083095Y-134957719I-833884J551938D01*
G01*
X152373998Y-119764001D02*
G75*
G03*
X152412302Y-120038120I1000002J1D01*
G01*
X92073999Y-52054002D02*
G75*
G03*
X91073999Y-51054001I-999999J2D01*
G01*
X167474000Y-79054000D02*
X158473999Y-79054001D01*
X249567005Y-115377650D02*
G75*
G03*
X248582200Y-114204002I-984805J173650D01*
G01*
X201047298Y-134473701D02*
X183231390Y-140434801D01*
X152373998Y-119764001D02*
X152374000Y-119754002D01*
X102444496Y-134423901D02*
X84109799Y-133302501D01*
X111123999Y-59054000D02*
G75*
G03*
X112123999Y-60054001I1000001J0D01*
G01*
X74023999Y-51054002D02*
X91073999Y-51054001D01*
X54899298Y-125210502D02*
X38108398Y-128171202D01*
X191624000Y-60054000D02*
X173573999Y-60054001D01*
X83295688Y-132788143D02*
G75*
G03*
X84109852Y-133302537I875212J483743D01*
G01*
X111123998Y-58554002D02*
G75*
G03*
X110123999Y-57554002I-999998J2D01*
G01*
X135273999Y-78054001D02*
G75*
G03*
X136274000Y-79054001I1000001J1D01*
G01*
X191624000Y-60053999D02*
G75*
G03*
X192623999Y-59054001I0J999999D01*
G01*
X151373999Y-119754002D02*
X151374002Y-119154002D01*
X150373999Y-60054000D02*
X147273999Y-60054000D01*
X54974000Y-57054001D02*
X72023998Y-57054002D01*
X166669115Y-150157138D02*
G75*
G03*
X168054935Y-150439087I833885J551938D01*
G01*
X92073999Y-56554003D02*
G75*
G03*
X93073998Y-57554001I1000001J3D01*
G01*
X201303551Y-134423859D02*
G75*
G03*
X201047294Y-134473676I61149J-998541D01*
G01*
X193623999Y-57554001D02*
X210673997Y-57554001D01*
X169473999Y-60053999D02*
G75*
G03*
X168473999Y-61054003I1J-1000001D01*
G01*
X152373999Y-68054001D02*
X152374000Y-114154002D01*
X231313900Y-114204001D02*
G75*
G03*
X230438689Y-114720261I0J-999999D01*
G01*
X74023999Y-51053999D02*
G75*
G03*
X73023999Y-52054001I1J-1000001D01*
G01*
X157473999Y-78054000D02*
X157473998Y-61054002D01*
X219638198Y-133302502D02*
X201303497Y-134423901D01*
X130173997Y-60054002D02*
X134274000Y-60054002D01*
X168474000Y-78054001D02*
X168473999Y-61054003D01*
X54974000Y-57053999D02*
G75*
G03*
X53973999Y-58054001I0J-1000001D01*
G01*
X249773998Y-58054000D02*
G75*
G03*
X248773999Y-57054002I-999998J0D01*
G01*
X248037501Y-124052101D02*
X249567099Y-115377651D01*
X28184351Y-71889491D02*
G75*
G03*
X27373191Y-73047949I173649J-984809D01*
G01*
X211674000Y-56554003D02*
X211674000Y-52053999D01*
X151373999Y-119754002D02*
X151373999Y-119764002D01*
X212673999Y-51054002D02*
X229723999Y-51054000D01*
X249773999Y-66503001D02*
X249773998Y-58054000D01*
X153373999Y-60053998D02*
G75*
G03*
X152373998Y-61054000I1J-1000002D01*
G01*
X55165800Y-114203999D02*
G75*
G03*
X54180991Y-115377649I0J-1000001D01*
G01*
X146273998Y-61054001D02*
X146273999Y-78054001D01*
X249774000Y-66503001D02*
G75*
G03*
X250600352Y-67487808I1000000J1D01*
G01*
X230723999Y-56054001D02*
G75*
G03*
X231724000Y-57054001I1000001J1D01*
G01*
X36949890Y-127360049D02*
G75*
G03*
X38108347Y-128171210I984810J173649D01*
G01*
X147273999Y-60053998D02*
G75*
G03*
X146273998Y-61054001I1J-1000002D01*
G01*
X230724000Y-52054001D02*
G75*
G03*
X229723999Y-51054000I-1000000J1D01*
G01*
X53973999Y-58054001D02*
X53973999Y-66503002D01*
X168054898Y-150439002D02*
X182996757Y-140549202D01*
X130173997Y-60054002D02*
X112123999Y-60054001D01*
X151335694Y-120038120D02*
G75*
G03*
X151373999Y-119764002I-961694J274120D01*
G01*
X156664902Y-134957720D02*
G75*
G03*
X156792713Y-135235538I961698J274120D01*
G01*
X28184398Y-71889502D02*
X53147600Y-67487800D01*
X53147649Y-67487807D02*
G75*
G03*
X53973999Y-66503002I-173649J984807D01*
G01*
X157473999Y-78054000D02*
G75*
G03*
X158473999Y-79054001I1000001J0D01*
G01*
X265639652Y-128171209D02*
G75*
G03*
X266798108Y-127360050I173648J984809D01*
G01*
X210673997Y-57554000D02*
G75*
G03*
X211674000Y-56554003I3J1000000D01*
G01*
X250600398Y-67487801D02*
X275563598Y-71889501D01*
X248582200Y-114204002D02*
X231313900Y-114204001D01*
X276374807Y-73047949D02*
G75*
G03*
X275563647Y-71889493I-984807J173649D01*
G01*
X54899348Y-125210506D02*
G75*
G03*
X55710506Y-124052053I-173648J984806D01*
G01*
X212673999Y-51054000D02*
G75*
G03*
X211674000Y-52053999I1J-1000000D01*
G01*
X145273999Y-79053999D02*
G75*
G03*
X146273999Y-78054001I1J999999D01*
G01*
X265639598Y-128171201D02*
X248848699Y-125210500D01*
X152373999Y-119153999D02*
X152374000Y-119754002D01*
X137078897Y-150157101D02*
X146955300Y-135235601D01*
X266798100Y-127360102D02*
X276374799Y-73047901D01*
X156664900Y-134957801D02*
X152412298Y-120038101D01*
X248037492Y-124052052D02*
G75*
G03*
X248848651Y-125210508I984808J-173648D01*
G01*
X135273998Y-61054002D02*
G75*
G03*
X134274000Y-60054002I-999998J2D01*
G01*
X219638148Y-133302535D02*
G75*
G03*
X220452309Y-132788144I-61048J998135D01*
G01*
X73023999Y-52054001D02*
X73024000Y-56054001D01*
X111123998Y-58554002D02*
X111123999Y-59054000D01*
X151374000Y-61054002D02*
G75*
G03*
X150373999Y-60054000I-1000000J2D01*
G01*
X72434099Y-114204003D02*
X55165800Y-114204001D01*
X151335699Y-120038100D02*
X147083100Y-134957803D01*
X167474000Y-79054000D02*
G75*
G03*
X168474000Y-78054001I0J1000000D01*
G01*
X169473999Y-60054000D02*
X173573999Y-60054001D01*
X220452299Y-132788102D02*
X230438700Y-114720262D01*
X145273999Y-79053999D02*
X136274000Y-79054001D01*
X151374000Y-114154001D02*
X151373998Y-68054002D01*
X73309298Y-114720260D02*
X83295699Y-132788100D01*
X193623999Y-57553999D02*
G75*
G03*
X192623999Y-58554002I1J-1000001D01*
G01*
X93073998Y-57554001D02*
X110123999Y-57554002D01*
X156474000Y-60054001D02*
X153373999Y-60054001D01*
X152373999Y-63054002D02*
X152373998Y-61054000D01*
X72023998Y-57054000D02*
G75*
G03*
X73024000Y-56054001I2J1000000D01*
G01*
X183231386Y-140434765D02*
G75*
G03*
X182996758Y-140549215I317314J-948235D01*
G01*
M02*
