M48
; DRILL file {KiCad 6.0.5} date Wed Jun  8 18:37:05 2022
; FORMAT={-:-/ absolute / inch / decimal}
; #@! TF.CreationDate,2022-06-08T18:37:05-03:00
; #@! TF.GenerationSoftware,Kicad,Pcbnew,6.0.5
; #@! TF.FileFunction,Plated,1,2,PTH
FMAT,2
INCH
; #@! TA.AperFunction,Plated,PTH,ViaDrill
T1C0.0157
; #@! TA.AperFunction,Plated,PTH,ComponentDrill
T2C0.0394
; #@! TA.AperFunction,Plated,PTH,ComponentDrill
T3C0.0400
%
G90
G05
T1
X1.5053Y-2.8264
X4.75Y-3.0543
X4.75Y-3.8043
X6.6083Y-4.3376
X7.9822Y-2.3259
T3
X5.2373Y-2.5293
X5.2373Y-2.7293
X5.2373Y-2.9293
X5.2373Y-3.1293
X5.2373Y-3.3293
X5.2373Y-3.5293
X5.2373Y-3.7293
X5.2373Y-3.9293
X5.2373Y-4.1293
X5.2373Y-4.3293
X5.2473Y-2.4293
X5.2473Y-2.6293
X5.2473Y-2.8293
X5.2473Y-3.0293
X5.2473Y-3.2293
X5.2473Y-3.4293
X5.2473Y-3.6293
X5.2473Y-3.8293
X5.2473Y-4.0293
X5.2473Y-4.2293
X5.8373Y-2.4293
X5.8373Y-2.6293
X5.8373Y-2.8293
X5.8373Y-3.0293
X5.8373Y-3.2293
X5.8373Y-3.4293
X5.8373Y-3.6293
X5.8373Y-3.8293
X5.8373Y-4.0293
X5.8373Y-4.2293
X5.8473Y-2.5293
X5.8473Y-2.7293
X5.8473Y-2.9293
X5.8473Y-3.1293
X5.8473Y-3.3293
X5.8473Y-3.5293
X5.8473Y-3.7293
X5.8473Y-3.9293
X5.8473Y-4.1293
X5.8473Y-4.3293
X6.1113Y-2.5293
X6.1113Y-2.7293
X6.1113Y-2.9293
X6.1113Y-3.1293
X6.1113Y-3.3293
X6.1113Y-3.5293
X6.1113Y-3.7293
X6.1113Y-3.9293
X6.1113Y-4.1293
X6.1113Y-4.3293
X6.1213Y-2.4293
X6.1213Y-2.6293
X6.1213Y-2.8293
X6.1213Y-3.0293
X6.1213Y-3.2293
X6.1213Y-3.4293
X6.1213Y-3.6293
X6.1213Y-3.8293
X6.1213Y-4.0293
X6.1213Y-4.2293
X6.7113Y-2.4293
X6.7113Y-2.6293
X6.7113Y-2.8293
X6.7113Y-3.0293
X6.7113Y-3.2293
X6.7113Y-3.4293
X6.7113Y-3.6293
X6.7113Y-3.8293
X6.7113Y-4.0293
X6.7113Y-4.2293
X6.7213Y-2.5293
X6.7213Y-2.7293
X6.7213Y-2.9293
X6.7213Y-3.1293
X6.7213Y-3.3293
X6.7213Y-3.5293
X6.7213Y-3.7293
X6.7213Y-3.9293
X6.7213Y-4.1293
X6.7213Y-4.3293
T2
X5.5049Y-4.51G85X5.4852Y-4.51
G05
X5.5639Y-4.6754G85X5.5443Y-4.6754
G05
X5.7214Y-4.6754G85X5.7017Y-4.6754
G05
X5.8395Y-4.6754G85X5.8198Y-4.6754
G05
X6.1191Y-4.51G85X6.1387Y-4.51
G05
X6.2372Y-4.51G85X6.2569Y-4.51
G05
X6.3946Y-4.51G85X6.4143Y-4.51
G05
X6.4537Y-4.6754G85X6.4734Y-4.6754
G05
T0
M30
