G04 #@! TF.GenerationSoftware,KiCad,Pcbnew,6.0.5*
G04 #@! TF.CreationDate,2022-06-08T18:37:02-03:00*
G04 #@! TF.ProjectId,tenax,74656e61-782e-46b6-9963-61645f706362,rev?*
G04 #@! TF.SameCoordinates,Original*
G04 #@! TF.FileFunction,Soldermask,Top*
G04 #@! TF.FilePolarity,Negative*
%FSLAX46Y46*%
G04 Gerber Fmt 4.6, Leading zero omitted, Abs format (unit mm)*
G04 Created by KiCad (PCBNEW 6.0.5) date 2022-06-08 18:37:02*
%MOMM*%
%LPD*%
G01*
G04 APERTURE LIST*
%ADD10C,0.300000*%
%ADD11C,4.100000*%
%ADD12C,3.000000*%
%ADD13C,1.900000*%
%ADD14C,4.300000*%
%ADD15C,1.200000*%
%ADD16C,2.082800*%
G04 APERTURE END LIST*
D10*
X152174000Y-117841501D03*
X152174000Y-119029001D03*
X152174000Y-117247751D03*
X152174000Y-118435251D03*
X152174000Y-114279001D03*
X152174000Y-114872751D03*
X152174000Y-115466501D03*
X152174000Y-116060251D03*
X152174000Y-116654001D03*
X152173998Y-65554002D03*
X152173998Y-64960252D03*
X152173998Y-64366502D03*
X152173998Y-63772752D03*
X152173998Y-63179002D03*
X152173998Y-67335252D03*
X152173998Y-66147752D03*
X152173998Y-67929002D03*
X152173998Y-66741502D03*
D11*
X82548998Y-79629002D03*
D12*
X78738998Y-77089002D03*
X85088998Y-74549002D03*
D13*
X77468998Y-79629002D03*
X87628998Y-79629002D03*
D12*
X204688999Y-61999001D03*
D11*
X202148999Y-67079001D03*
D13*
X197068999Y-67079001D03*
D12*
X198338999Y-64539001D03*
D13*
X207228999Y-67079001D03*
D14*
X254479898Y-87515700D03*
D12*
X217388999Y-58039002D03*
X223738999Y-55499002D03*
D13*
X226278999Y-60579002D03*
D11*
X221198999Y-60579002D03*
D13*
X216118999Y-60579002D03*
D14*
X126686109Y-122411002D03*
D11*
X262206206Y-98550007D03*
D13*
X267209029Y-99432140D03*
X257203383Y-97667874D03*
D12*
X258895155Y-95386996D03*
X265589750Y-93988250D03*
D14*
X111124000Y-76604001D03*
D15*
X142873997Y-116654002D03*
X149873997Y-116654002D03*
D10*
X151574000Y-119029001D03*
X151574000Y-116060251D03*
X151574000Y-117247751D03*
X151574000Y-117841501D03*
X151574000Y-114872751D03*
X151574000Y-116654001D03*
X151574000Y-118435251D03*
X151574000Y-114279001D03*
X151574000Y-115466501D03*
D13*
X68578999Y-104679000D03*
D11*
X63498999Y-104679000D03*
D12*
X59688999Y-102139000D03*
X66038999Y-99599000D03*
D13*
X58418999Y-104679000D03*
X226278998Y-98679001D03*
D12*
X217388998Y-96139001D03*
X223738998Y-93599001D03*
D13*
X216118998Y-98679001D03*
D11*
X221198998Y-98679001D03*
D14*
X177061888Y-122411000D03*
X52576099Y-106276300D03*
D11*
X120649000Y-107679001D03*
D13*
X125729000Y-107679001D03*
D12*
X116839000Y-105139001D03*
D13*
X115569000Y-107679001D03*
D12*
X123189000Y-102599001D03*
D11*
X82548998Y-60579001D03*
D12*
X78738998Y-58039001D03*
D13*
X87628998Y-60579001D03*
D12*
X85088998Y-55499001D03*
D13*
X77468998Y-60579001D03*
D12*
X104138999Y-100099002D03*
D13*
X96518999Y-105179002D03*
D12*
X97788999Y-102639002D03*
D11*
X101598999Y-105179002D03*
D13*
X106678999Y-105179002D03*
D11*
X258898204Y-117310609D03*
D12*
X262281748Y-112748852D03*
D13*
X253895381Y-116428476D03*
X263901027Y-118192742D03*
D12*
X255587153Y-114147598D03*
D11*
X120648999Y-88628999D03*
D12*
X123188999Y-83548999D03*
X116838999Y-86088999D03*
D13*
X125728999Y-88628999D03*
X115568999Y-88628999D03*
D12*
X236438999Y-102139003D03*
X242788999Y-99599003D03*
D13*
X245328999Y-104679003D03*
X235168999Y-104679003D03*
D11*
X240248999Y-104679003D03*
D13*
X260511381Y-78907276D03*
X270517027Y-80671542D03*
D12*
X268897748Y-75227652D03*
X262203153Y-76626398D03*
D11*
X265514204Y-79789409D03*
X44849805Y-117310607D03*
D13*
X49852628Y-116428474D03*
D12*
X40656621Y-115470795D03*
X46469084Y-111866717D03*
D13*
X39846982Y-118192740D03*
D11*
X82549000Y-98679002D03*
D13*
X77469000Y-98679002D03*
X87629000Y-98679002D03*
D12*
X78739000Y-96139002D03*
X85089000Y-93599002D03*
D13*
X58418999Y-66579000D03*
D12*
X59688999Y-64039000D03*
D11*
X63498999Y-66579000D03*
D13*
X68578999Y-66579000D03*
D12*
X66038999Y-61499000D03*
D13*
X245328998Y-66579000D03*
D11*
X240248998Y-66579000D03*
D12*
X236438998Y-64039000D03*
X242788998Y-61499000D03*
D13*
X235168998Y-66579000D03*
D12*
X66039000Y-80549002D03*
D11*
X63499000Y-85629002D03*
D13*
X58419000Y-85629002D03*
X68579000Y-85629002D03*
D12*
X59689000Y-83089002D03*
D13*
X36538982Y-99432139D03*
X46544628Y-97667873D03*
D12*
X43161084Y-93106116D03*
D11*
X41541805Y-98550006D03*
D12*
X37348621Y-96710194D03*
D13*
X188178998Y-88629000D03*
D12*
X179288998Y-86089000D03*
D11*
X183098998Y-88629000D03*
D13*
X178018998Y-88629000D03*
D12*
X185638998Y-83549000D03*
D10*
X151573998Y-66147752D03*
X151573998Y-64960252D03*
X151573998Y-63772752D03*
X151573998Y-66741502D03*
X151573998Y-64366502D03*
X151573998Y-63179002D03*
X151573998Y-65554002D03*
X151573998Y-67929002D03*
X151573998Y-67335252D03*
D12*
X96495567Y-119427738D03*
X90002348Y-121575342D03*
D13*
X88579653Y-124033072D03*
D11*
X93650178Y-124343199D03*
D13*
X98720703Y-124653326D03*
D14*
X219023598Y-114254481D03*
D13*
X174142677Y-134987224D03*
X165670397Y-140594904D03*
D12*
X165327512Y-137775874D03*
X169220767Y-132153004D03*
D11*
X169906537Y-137791064D03*
D13*
X205027326Y-124653330D03*
D12*
X212322987Y-119117615D03*
X206139894Y-122040536D03*
D11*
X210097851Y-124343203D03*
D13*
X215168376Y-124033076D03*
D12*
X34040622Y-77949595D03*
D11*
X38233806Y-79789407D03*
D12*
X39853085Y-74345517D03*
D13*
X33230983Y-80671540D03*
X43236629Y-78907274D03*
D12*
X204689001Y-81049000D03*
D13*
X197069001Y-86129000D03*
X207229001Y-86129000D03*
D12*
X198339001Y-83589000D03*
D11*
X202149001Y-86129000D03*
D13*
X245328999Y-85629001D03*
D11*
X240248999Y-85629001D03*
D12*
X236438999Y-83089001D03*
X242788999Y-80549001D03*
D13*
X235168999Y-85629001D03*
X197068999Y-105179002D03*
D12*
X198338999Y-102639002D03*
D11*
X202148999Y-105179002D03*
D13*
X207228999Y-105179002D03*
D12*
X204688999Y-100099002D03*
D14*
X192624000Y-76604001D03*
D11*
X120648999Y-69579002D03*
D13*
X125728999Y-69579002D03*
D12*
X116838999Y-67039002D03*
D13*
X115568999Y-69579002D03*
D12*
X123188999Y-64499002D03*
D14*
X251171899Y-106276302D03*
D15*
X153873998Y-116654000D03*
X160873998Y-116654000D03*
D12*
X217388999Y-77089003D03*
D11*
X221198999Y-79629003D03*
D13*
X216118999Y-79629003D03*
D12*
X223738999Y-74549003D03*
D13*
X226278999Y-79629003D03*
D14*
X49268100Y-87515702D03*
D13*
X188178999Y-69579002D03*
D12*
X185638999Y-64499002D03*
D13*
X178018999Y-69579002D03*
D11*
X183098999Y-69579002D03*
D12*
X179288999Y-67039002D03*
X97788999Y-83589002D03*
D13*
X96518999Y-86129002D03*
X106678999Y-86129002D03*
D12*
X104138999Y-81049002D03*
D11*
X101598999Y-86129002D03*
D13*
X193934525Y-126809561D03*
D12*
X189913875Y-122798031D03*
X184697974Y-127221658D03*
D13*
X184299557Y-130033377D03*
D11*
X189117041Y-128421469D03*
D13*
X119448484Y-130033365D03*
D11*
X114631000Y-128421457D03*
D13*
X109813516Y-126809549D03*
D12*
X118651650Y-124409927D03*
X111823841Y-124803784D03*
D14*
X84724398Y-114254480D03*
D11*
X183098999Y-107679002D03*
D13*
X178018999Y-107679002D03*
X188178999Y-107679002D03*
D12*
X185638999Y-102599002D03*
X179288999Y-105139002D03*
D13*
X106679000Y-67079000D03*
D12*
X97789000Y-64539000D03*
D11*
X101599000Y-67079000D03*
D12*
X104139000Y-61999000D03*
D13*
X96519000Y-67079000D03*
D11*
X133841437Y-137791064D03*
D12*
X132066252Y-133570114D03*
D13*
X138077577Y-140594904D03*
D12*
X138763347Y-134956844D03*
D13*
X129605297Y-134987224D03*
D16*
X133281001Y-61704002D03*
X133027001Y-64244002D03*
X133281001Y-66784002D03*
X133027001Y-69324002D03*
X133281001Y-71864002D03*
X133027001Y-74404002D03*
X133281001Y-76944002D03*
X133027001Y-79484002D03*
X133281001Y-82024002D03*
X133027001Y-84564002D03*
X133281001Y-87104002D03*
X133027001Y-89644002D03*
X133281001Y-92184002D03*
X133027001Y-94724002D03*
X133281001Y-97264002D03*
X133027001Y-99804002D03*
X133281001Y-102344002D03*
X133027001Y-104884002D03*
X133281001Y-107424002D03*
X133027001Y-109964002D03*
X148521001Y-109964002D03*
X148267001Y-107424002D03*
X148521001Y-104884002D03*
X148267001Y-102344002D03*
X148521001Y-99804002D03*
X148267001Y-97264002D03*
X148521001Y-94724002D03*
X148267001Y-92184002D03*
X148521001Y-89644002D03*
X148267001Y-87104002D03*
X148521001Y-84564002D03*
X148267001Y-82024002D03*
X148521001Y-79484002D03*
X148267001Y-76944002D03*
X148521001Y-74404002D03*
X148267001Y-71864002D03*
X148521001Y-69324002D03*
X148267001Y-66784002D03*
X148521001Y-64244002D03*
X148267001Y-61704002D03*
X170466997Y-61704001D03*
X170720997Y-64244001D03*
X170466997Y-66784001D03*
X170720997Y-69324001D03*
X170466997Y-71864001D03*
X170720997Y-74404001D03*
X170466997Y-76944001D03*
X170720997Y-79484001D03*
X170466997Y-82024001D03*
X170720997Y-84564001D03*
X170466997Y-87104001D03*
X170720997Y-89644001D03*
X170466997Y-92184001D03*
X170720997Y-94724001D03*
X170466997Y-97264001D03*
X170720997Y-99804001D03*
X170466997Y-102344001D03*
X170720997Y-104884001D03*
X170466997Y-107424001D03*
X170720997Y-109964001D03*
X155226997Y-109964001D03*
X155480997Y-107424001D03*
X155226997Y-104884001D03*
X155480997Y-102344001D03*
X155226997Y-99804001D03*
X155480997Y-97264001D03*
X155226997Y-94724001D03*
X155480997Y-92184001D03*
X155226997Y-89644001D03*
X155480997Y-87104001D03*
X155226997Y-84564001D03*
X155480997Y-82024001D03*
X155226997Y-79484001D03*
X155480997Y-76944001D03*
X155226997Y-74404001D03*
X155480997Y-71864001D03*
X155226997Y-69324001D03*
X155480997Y-66784001D03*
X155226997Y-64244001D03*
X155480997Y-61704001D03*
M02*
