G04 #@! TF.GenerationSoftware,KiCad,Pcbnew,6.0.5*
G04 #@! TF.CreationDate,2022-06-07T20:26:54-03:00*
G04 #@! TF.ProjectId,tenax,74656e61-782e-46b6-9963-61645f706362,rev?*
G04 #@! TF.SameCoordinates,Original*
G04 #@! TF.FileFunction,Paste,Bot*
G04 #@! TF.FilePolarity,Positive*
%FSLAX46Y46*%
G04 Gerber Fmt 4.6, Leading zero omitted, Abs format (unit mm)*
G04 Created by KiCad (PCBNEW 6.0.5) date 2022-06-07 20:26:54*
%MOMM*%
%LPD*%
G01*
G04 APERTURE LIST*
G04 Aperture macros list*
%AMRotRect*
0 Rectangle, with rotation*
0 The origin of the aperture is its center*
0 $1 length*
0 $2 width*
0 $3 Rotation angle, in degrees counterclockwise*
0 Add horizontal line*
21,1,$1,$2,0,0,$3*%
G04 Aperture macros list end*
%ADD10R,2.550000X2.500000*%
%ADD11RotRect,2.550000X2.500000X170.000000*%
%ADD12RotRect,2.550000X2.500000X190.000000*%
%ADD13RotRect,2.550000X2.500000X176.500000*%
%ADD14RotRect,2.550000X2.500000X213.500000*%
%ADD15RotRect,2.550000X2.500000X183.500000*%
%ADD16RotRect,2.550000X2.500000X198.500000*%
%ADD17RotRect,2.550000X2.500000X161.500000*%
%ADD18RotRect,2.550000X2.500000X146.500000*%
G04 APERTURE END LIST*
D10*
X75463998Y-77089002D03*
X88390998Y-74549002D03*
X194463999Y-64539001D03*
X207390999Y-61999001D03*
X213513999Y-58039002D03*
X226440999Y-55499002D03*
D11*
X255069909Y-94818298D03*
X268241586Y-94561636D03*
D10*
X56413999Y-102139000D03*
X69340999Y-99599000D03*
X213513998Y-96139001D03*
X226440998Y-93599001D03*
X113564000Y-105139001D03*
X126491000Y-102599001D03*
X75463998Y-58039001D03*
X88390998Y-55499001D03*
X94513999Y-102639002D03*
X107440999Y-100099002D03*
D11*
X251761907Y-113578900D03*
X264933584Y-113322238D03*
D10*
X113563999Y-86088999D03*
X126490999Y-83548999D03*
X232563999Y-102139003D03*
X245490999Y-99599003D03*
D11*
X258377907Y-76057700D03*
X271549584Y-75801038D03*
D12*
X37431376Y-116039493D03*
X49720919Y-111293331D03*
D10*
X75464000Y-96139002D03*
X88391000Y-93599002D03*
X56413999Y-64039000D03*
X69340999Y-61499000D03*
X232563998Y-64039000D03*
X245490998Y-61499000D03*
X56414000Y-83089002D03*
X69341000Y-80549002D03*
D12*
X34123376Y-97278892D03*
X46412919Y-92532730D03*
D10*
X175413998Y-86089000D03*
X188340998Y-83549000D03*
D13*
X86733456Y-121375408D03*
X99791408Y-119629320D03*
D14*
X161996536Y-139583468D03*
X171374258Y-130330508D03*
D15*
X202271003Y-122240470D03*
X215018828Y-118916033D03*
D12*
X30815377Y-78518293D03*
X43104920Y-73772131D03*
D10*
X194464001Y-83589000D03*
X207391001Y-81049000D03*
X232563999Y-83089001D03*
X245490999Y-80549001D03*
X194463999Y-102639002D03*
X207390999Y-100099002D03*
X113563999Y-67039002D03*
X126490999Y-64499002D03*
X213513999Y-77089003D03*
X226440999Y-74549003D03*
X175413999Y-67039002D03*
X188340999Y-64499002D03*
X94513999Y-83589002D03*
X107440999Y-81049002D03*
D16*
X180992214Y-128260830D03*
X192445240Y-121750291D03*
D17*
X108718081Y-123764611D03*
X121783014Y-125457667D03*
D10*
X175413999Y-105139002D03*
X188340999Y-102599002D03*
X94514000Y-64539000D03*
X107441000Y-61999000D03*
D18*
X129335276Y-131762520D03*
X141516838Y-136779340D03*
M02*
