G04 #@! TF.GenerationSoftware,KiCad,Pcbnew,6.0.5*
G04 #@! TF.CreationDate,2022-06-07T20:26:55-03:00*
G04 #@! TF.ProjectId,tenax,74656e61-782e-46b6-9963-61645f706362,rev?*
G04 #@! TF.SameCoordinates,Original*
G04 #@! TF.FileFunction,Soldermask,Top*
G04 #@! TF.FilePolarity,Negative*
%FSLAX46Y46*%
G04 Gerber Fmt 4.6, Leading zero omitted, Abs format (unit mm)*
G04 Created by KiCad (PCBNEW 6.0.5) date 2022-06-07 20:26:55*
%MOMM*%
%LPD*%
G01*
G04 APERTURE LIST*
%ADD10C,4.100000*%
%ADD11C,3.000000*%
%ADD12C,1.900000*%
%ADD13C,4.300000*%
%ADD14C,1.200000*%
%ADD15C,0.300000*%
%ADD16C,2.082800*%
G04 APERTURE END LIST*
D10*
X82548998Y-79629002D03*
D11*
X78738998Y-77089002D03*
X85088998Y-74549002D03*
D12*
X77468998Y-79629002D03*
X87628998Y-79629002D03*
D11*
X204088999Y-61999001D03*
D10*
X201548999Y-67079001D03*
D12*
X196468999Y-67079001D03*
D11*
X197738999Y-64539001D03*
D12*
X206628999Y-67079001D03*
D13*
X253879898Y-87515700D03*
D12*
X215518999Y-60579002D03*
D10*
X220598999Y-60579002D03*
D12*
X225678999Y-60579002D03*
D11*
X223138999Y-55499002D03*
X216788999Y-58039002D03*
D13*
X126686109Y-122411002D03*
D11*
X264989750Y-93988250D03*
X258295155Y-95386996D03*
D12*
X256603383Y-97667874D03*
X266609029Y-99432140D03*
D10*
X261606206Y-98550007D03*
D13*
X111124000Y-76604001D03*
D14*
X142873997Y-116654002D03*
X149873997Y-116654002D03*
D15*
X151574000Y-115466501D03*
X151574000Y-114279001D03*
X151574000Y-118435251D03*
X151574000Y-116654001D03*
X151574000Y-114872751D03*
X151574000Y-117841501D03*
X151574000Y-117247751D03*
X151574000Y-116060251D03*
X151574000Y-119029001D03*
D12*
X68578999Y-104679000D03*
D10*
X63498999Y-104679000D03*
D11*
X59688999Y-102139000D03*
X66038999Y-99599000D03*
D12*
X58418999Y-104679000D03*
D10*
X220598998Y-98679001D03*
D12*
X215518998Y-98679001D03*
D11*
X223138998Y-93599001D03*
X216788998Y-96139001D03*
D12*
X225678998Y-98679001D03*
D13*
X176461888Y-122411000D03*
X52576099Y-106276300D03*
D10*
X120649000Y-107679001D03*
D12*
X125729000Y-107679001D03*
D11*
X116839000Y-105139001D03*
D12*
X115569000Y-107679001D03*
D11*
X123189000Y-102599001D03*
D10*
X82548998Y-60579001D03*
D11*
X78738998Y-58039001D03*
D12*
X87628998Y-60579001D03*
D11*
X85088998Y-55499001D03*
D12*
X77468998Y-60579001D03*
D11*
X104138999Y-100099002D03*
D12*
X96518999Y-105179002D03*
D11*
X97788999Y-102639002D03*
D10*
X101598999Y-105179002D03*
D12*
X106678999Y-105179002D03*
D11*
X254987153Y-114147598D03*
D12*
X263301027Y-118192742D03*
X253295381Y-116428476D03*
D11*
X261681748Y-112748852D03*
D10*
X258298204Y-117310609D03*
X120648999Y-88628999D03*
D11*
X123188999Y-83548999D03*
X116838999Y-86088999D03*
D12*
X125728999Y-88628999D03*
X115568999Y-88628999D03*
D10*
X239648999Y-104679003D03*
D12*
X234568999Y-104679003D03*
X244728999Y-104679003D03*
D11*
X242188999Y-99599003D03*
X235838999Y-102139003D03*
D10*
X264914204Y-79789409D03*
D11*
X261603153Y-76626398D03*
X268297748Y-75227652D03*
D12*
X269917027Y-80671542D03*
X259911381Y-78907276D03*
D10*
X44849805Y-117310607D03*
D12*
X49852628Y-116428474D03*
D11*
X40656621Y-115470795D03*
X46469084Y-111866717D03*
D12*
X39846982Y-118192740D03*
D10*
X82549000Y-98679002D03*
D12*
X77469000Y-98679002D03*
X87629000Y-98679002D03*
D11*
X78739000Y-96139002D03*
X85089000Y-93599002D03*
D12*
X58418999Y-66579000D03*
D11*
X59688999Y-64039000D03*
D10*
X63498999Y-66579000D03*
D12*
X68578999Y-66579000D03*
D11*
X66038999Y-61499000D03*
D12*
X234568998Y-66579000D03*
D11*
X242188998Y-61499000D03*
X235838998Y-64039000D03*
D10*
X239648998Y-66579000D03*
D12*
X244728998Y-66579000D03*
D11*
X66039000Y-80549002D03*
D10*
X63499000Y-85629002D03*
D12*
X58419000Y-85629002D03*
X68579000Y-85629002D03*
D11*
X59689000Y-83089002D03*
D12*
X36538982Y-99432139D03*
X46544628Y-97667873D03*
D11*
X43161084Y-93106116D03*
D10*
X41541805Y-98550006D03*
D11*
X37348621Y-96710194D03*
D12*
X187578998Y-88629000D03*
D11*
X178688998Y-86089000D03*
D10*
X182498998Y-88629000D03*
D12*
X177418998Y-88629000D03*
D11*
X185038998Y-83549000D03*
D15*
X151573999Y-66147751D03*
X151573999Y-64960251D03*
X151573999Y-63772751D03*
X151573999Y-66741501D03*
X151573999Y-64366501D03*
X151573999Y-63179001D03*
X151573999Y-65554001D03*
X151573999Y-67929001D03*
X151573999Y-67335251D03*
D11*
X96495567Y-119427738D03*
X90002348Y-121575342D03*
D12*
X88579653Y-124033072D03*
D10*
X93650178Y-124343199D03*
D12*
X98720703Y-124653326D03*
D13*
X218423598Y-114254481D03*
D12*
X173542677Y-134987224D03*
X165070397Y-140594904D03*
D11*
X164727512Y-137775874D03*
X168620767Y-132153004D03*
D10*
X169306537Y-137791064D03*
D12*
X214568376Y-124033076D03*
D10*
X209497851Y-124343203D03*
D11*
X205539894Y-122040536D03*
X211722987Y-119117615D03*
D12*
X204427326Y-124653330D03*
D11*
X34040622Y-77949595D03*
D10*
X38233806Y-79789407D03*
D11*
X39853085Y-74345517D03*
D12*
X33230983Y-80671540D03*
X43236629Y-78907274D03*
D11*
X204089001Y-81049000D03*
D12*
X196469001Y-86129000D03*
X206629001Y-86129000D03*
D11*
X197739001Y-83589000D03*
D10*
X201549001Y-86129000D03*
D12*
X234568999Y-85629001D03*
D11*
X242188999Y-80549001D03*
X235838999Y-83089001D03*
D10*
X239648999Y-85629001D03*
D12*
X244728999Y-85629001D03*
X196468999Y-105179002D03*
D11*
X197738999Y-102639002D03*
D10*
X201548999Y-105179002D03*
D12*
X206628999Y-105179002D03*
D11*
X204088999Y-100099002D03*
D13*
X192024000Y-76604001D03*
D10*
X120648999Y-69579002D03*
D12*
X125728999Y-69579002D03*
D11*
X116838999Y-67039002D03*
D12*
X115568999Y-69579002D03*
D11*
X123188999Y-64499002D03*
D13*
X250571899Y-106276302D03*
D14*
X160273998Y-116654000D03*
X153273998Y-116654000D03*
D12*
X225678999Y-79629003D03*
D11*
X223138999Y-74549003D03*
D12*
X215518999Y-79629003D03*
D10*
X220598999Y-79629003D03*
D11*
X216788999Y-77089003D03*
D13*
X49268100Y-87515702D03*
D12*
X187578999Y-69579002D03*
D11*
X185038999Y-64499002D03*
D12*
X177418999Y-69579002D03*
D10*
X182498999Y-69579002D03*
D11*
X178688999Y-67039002D03*
X97788999Y-83589002D03*
D12*
X96518999Y-86129002D03*
X106678999Y-86129002D03*
D11*
X104138999Y-81049002D03*
D10*
X101598999Y-86129002D03*
D12*
X193334525Y-126809561D03*
D11*
X189313875Y-122798031D03*
X184097974Y-127221658D03*
D12*
X183699557Y-130033377D03*
D10*
X188517041Y-128421469D03*
D12*
X119448484Y-130033365D03*
D10*
X114631000Y-128421457D03*
D12*
X109813516Y-126809549D03*
D11*
X118651650Y-124409927D03*
X111823841Y-124803784D03*
D13*
X84724398Y-114254480D03*
D10*
X182498999Y-107679002D03*
D12*
X177418999Y-107679002D03*
X187578999Y-107679002D03*
D11*
X185038999Y-102599002D03*
X178688999Y-105139002D03*
D12*
X106679000Y-67079000D03*
D11*
X97789000Y-64539000D03*
D10*
X101599000Y-67079000D03*
D11*
X104139000Y-61999000D03*
D12*
X96519000Y-67079000D03*
D10*
X133841437Y-137791064D03*
D11*
X132066252Y-133570114D03*
D12*
X138077577Y-140594904D03*
D11*
X138763347Y-134956844D03*
D12*
X129605297Y-134987224D03*
D16*
X148267001Y-61704002D03*
X148521001Y-64244002D03*
X148267001Y-66784002D03*
X148521001Y-69324002D03*
X148267001Y-71864002D03*
X148521001Y-74404002D03*
X148267001Y-76944002D03*
X148521001Y-79484002D03*
X148267001Y-82024002D03*
X148521001Y-84564002D03*
X148267001Y-87104002D03*
X148521001Y-89644002D03*
X148267001Y-92184002D03*
X148521001Y-94724002D03*
X148267001Y-97264002D03*
X148521001Y-99804002D03*
X148267001Y-102344002D03*
X148521001Y-104884002D03*
X148267001Y-107424002D03*
X148521001Y-109964002D03*
X133027001Y-109964002D03*
X133281001Y-107424002D03*
X133027001Y-104884002D03*
X133281001Y-102344002D03*
X133027001Y-99804002D03*
X133281001Y-97264002D03*
X133027001Y-94724002D03*
X133281001Y-92184002D03*
X133027001Y-89644002D03*
X133281001Y-87104002D03*
X133027001Y-84564002D03*
X133281001Y-82024002D03*
X133027001Y-79484002D03*
X133281001Y-76944002D03*
X133027001Y-74404002D03*
X133281001Y-71864002D03*
X133027001Y-69324002D03*
X133281001Y-66784002D03*
X133027001Y-64244002D03*
X133281001Y-61704002D03*
X169866997Y-61704001D03*
X170120997Y-64244001D03*
X169866997Y-66784001D03*
X170120997Y-69324001D03*
X169866997Y-71864001D03*
X170120997Y-74404001D03*
X169866997Y-76944001D03*
X170120997Y-79484001D03*
X169866997Y-82024001D03*
X170120997Y-84564001D03*
X169866997Y-87104001D03*
X170120997Y-89644001D03*
X169866997Y-92184001D03*
X170120997Y-94724001D03*
X169866997Y-97264001D03*
X170120997Y-99804001D03*
X169866997Y-102344001D03*
X170120997Y-104884001D03*
X169866997Y-107424001D03*
X170120997Y-109964001D03*
X154626997Y-109964001D03*
X154880997Y-107424001D03*
X154626997Y-104884001D03*
X154880997Y-102344001D03*
X154626997Y-99804001D03*
X154880997Y-97264001D03*
X154626997Y-94724001D03*
X154880997Y-92184001D03*
X154626997Y-89644001D03*
X154880997Y-87104001D03*
X154626997Y-84564001D03*
X154880997Y-82024001D03*
X154626997Y-79484001D03*
X154880997Y-76944001D03*
X154626997Y-74404001D03*
X154880997Y-71864001D03*
X154626997Y-69324001D03*
X154880997Y-66784001D03*
X154626997Y-64244001D03*
X154880997Y-61704001D03*
M02*
