999
FreeCAD v0.19 0.19.4
  0
SECTION
  2
HEADER
  9
$ACADVER
  1
AC1014
  9
$ACADMAINTVER
 70
     9
  9
$DWGCODEPAGE
  3
ANSI_1252
  9
$TEXTSTYLE
  7
STANDARD
  9
$DIMSTYLE
  2
STANDARD
  9
$DIMTXSTY
  7
STANDARD
  9
$CMLSTYLE
  2
STANDARD
  9
$PEXTMAX
 10
50
 20
50
 30
50
  9
$PEXTMIN
 10
0
 20
0
 30
0
  9
$HANDSEED
  5
FFFF
  0
ENDSEC
  0
SECTION
  2
CLASSES
  0
CLASS
  1
ACDBDICTIONARYWDFLT
  2
AcDbDictionaryWithDefault
  3
ObjectDBX Classes
 90
        0
280
     0
281
     0
  0
CLASS
  1
XRECORD
  2
AcDbXrecord
  3
ObjectDBX Classes
 90
        0
280
     0
281
     0
  0
CLASS
  1
LWPOLYLINE
  2
AcDbPolyline
  3
ObjectDBX Classes
 90
        0
280
     0
281
     1
  0
ENDSEC
  0
SECTION
  2
TABLES
  0
TABLE
  2
VPORT
  5
20
330
0
100
AcDbSymbolTable
 70
     1
  0
VPORT
  5
21
330
20
100
AcDbSymbolTableRecord
100
AcDbViewportTableRecord
  2
*ACTIVE
 70
     0
  0
ENDTAB
  0
TABLE
  2
LTYPE
  5
22
330
0
100
AcDbSymbolTable
 70
     1
  0
LTYPE
  5
23
330
21
100
AcDbSymbolTableRecord
100
AcDbLinetypeTableRecord
  2
BYBLOCK
 70
     0
  3

 72
    65
 73
     0
 40
0.0
  0
LTYPE
  5
24
330
21
100
AcDbSymbolTableRecord
100
AcDbLinetypeTableRecord
  2
BYLAYER
 70
     0
  3

 72
    65
 73
     0
 40
0.0
  0
LTYPE
  5
25
330
21
100
AcDbSymbolTableRecord
100
AcDbLinetypeTableRecord
  2
CONTINUOUS
 70
     0
  3
Solid line
 72
    65
 73
     0
 40
0.0
  0
ENDTAB
  0
TABLE
  2
LAYER
  5
A49
330
0
100
AcDbSymbolTable
 70
3
  0
LAYER
  5
A4A
330
A49
100
AcDbSymbolTableRecord
100
AcDbLayerTableRecord
  2
0
 70
   0
 62
   7
  6
CONTINUOUS
  0
LAYER
  5
A4B
330
A49
100
AcDbSymbolTableRecord
100
AcDbLayerTableRecord
  2
none
 70
    0
 62
    7
  6
CONTINUOUS
  0
LAYER
  5
A4C
330
A49
100
AcDbSymbolTableRecord
100
AcDbLayerTableRecord
  2
Sketch002
 70
    0
 62
    7
  6
CONTINUOUS
  0
ENDTAB
  0
TABLE
  2
STYLE
  5
70
330
0
100
AcDbSymbolTable
 70
     2
  0
STYLE
  5
71
330
70
100
AcDbSymbolTableRecord
100
AcDbTextStyleTableRecord
  2
STANDARD
 70
     0
 40
0.0
 41
1.0
 50
0.0
 71
     0
 42
2.5
  3
arial.ttf
  4

  0
STYLE
  5
72
330
70
100
AcDbSymbolTableRecord
100
AcDbTextStyleTableRecord
  2
ANNOTATIVE
 70
     0
 40
0.0
 41
1.0
 50
0.0
 71
     0
 42
2.5
  3
arial.ttf
  4

  0
ENDTAB
  0
TABLE
  2
VIEW
  5
73
330
0
100
AcDbSymbolTable
 70
     0
  0
ENDTAB
  0
TABLE
  2
UCS
  5
74
330
0
100
AcDbSymbolTable
 70
     0
  0
ENDTAB
  0
TABLE
  2
APPID
  5
75
330
0
100
AcDbSymbolTable
 70
     2
  0
APPID
  5
76
330
75
100
AcDbSymbolTableRecord
100
AcDbRegAppTableRecord
  2
ACAD
 70
     0
  0
APPID
  5
77
330
75
100
AcDbSymbolTableRecord
100
AcDbRegAppTableRecord
  2
ACADANNOTATIVE
 70
     0
  0
ENDTAB
  0
TABLE
  2
DIMSTYLE
  5
78
330
0
100
AcDbSymbolTable
 70
     2
  0
DIMSTYLE
105
79
330
78
100
AcDbSymbolTableRecord
100
AcDbDimStyleTableRecord
  2
STANDARD
 70
     0
  3

  4

  5

  6

  7

 40
0.0
 41
2.5
 42
0.625
 43
3.75
 44
1.25
 45
0.0
 46
0.0
 47
0.0
 48
0.0
140
2.5
141
2.5
142
0.0
143
0.03937007874016
144
1.0
145
0.0
146
1.0
147
0.625
 71
     0
 72
     0
 73
     0
 74
     0
 75
     0
 76
     0
 77
     1
 78
     8
170
     0
171
     3
172
     1
173
     0
174
     0
175
     0
176
     0
177
     0
178
     0
270
     2
271
     2
272
     2
273
     2
274
     3
340
71
275
     0
280
     0
281
     0
282
     0
283
     0
284
     8
285
     0
286
     0
287
     3
288
     0
  0
ENDTAB
  0
TABLE
  2
BLOCK_RECORD
  5
A01
330
0
100
AcDbSymbolTable
  70
5
  0
BLOCK_RECORD
  5
A02
330
A01
100
AcDbSymbolTableRecord
100
AcDbBlockTableRecord
  2
*MODEL_SPACE
  0
BLOCK_RECORD
  5
A03
330
A01
100
AcDbSymbolTableRecord
100
AcDbBlockTableRecord
  2
*PAPER_SPACE
  0
ENDTAB
  0
ENDSEC
  0
SECTION
  2
BLOCKS
  0
BLOCK
  5
A04
330
A02
100
AcDbEntity
  8
0
100
AcDbBlockBegin
  2
*MODEL_SPACE
 70
   0
 10
0
 20
0
 30
0
  3
*MODEL_SPACE
  1
 
  0
ENDBLK
  5
A05
330
A02
100
AcDbEntity
  8
0
100
AcDbBlockEnd
  0
BLOCK
  5
A06
330
A03
100
AcDbEntity
 67
1
  8
0
100
AcDbBlockBegin
  2
*PAPER_SPACE
 70
   0
 10
0
 20
0
 30
0
  3
*PAPER_SPACE
  1
 
  0
ENDBLK
  5
A07
330
A03
100
AcDbEntity
 67
    1
  8
0
100
AcDbBlockEnd
  0
ENDSEC
  0
SECTION
  2
ENTITIES
  0
LINE
  5
A08
330
A02
100
AcDbEntity
  8
Sketch002
100
AcDbLine
 10
30.6867
 20
-12.3591
 30
0
 11
26.4341
 21
-27.2788
 31
0
  0
ARC
  5
A09
330
A02
100
AcDbEntity
  8
Sketch002
100
AcDbCircle
 10
25.4724
 20
-27.0046
 30
0
 40
1
100
AcDbArc
 50
-33.5
 51
-15.9095
  0
LINE
  5
A0A
330
A02
100
AcDbEntity
  8
Sketch002
100
AcDbLine
 10
16.4299
 20
-42.4781
 30
0
 11
26.3063
 21
-27.5566
 31
0
  0
ARC
  5
A0B
330
A02
100
AcDbEntity
  8
Sketch002
100
AcDbCircle
 10
15.596
 20
-41.9262
 30
0
 40
1
100
AcDbArc
 50
-123.5
 51
-33.5
  0
LINE
  5
A0C
330
A02
100
AcDbEntity
  8
Sketch002
100
AcDbLine
 10
0.102241
 20
-32.8702
 30
0
 11
15.0441
 21
-42.76
 31
0
  0
ARC
  5
A0D
330
A02
100
AcDbEntity
  8
Sketch002
100
AcDbCircle
 10
-0.449696
 20
-33.7041
 30
0
 40
1
100
AcDbArc
 50
56.5
 51
71.5
  0
LINE
  5
A0E
330
A02
100
AcDbEntity
  8
Sketch002
100
AcDbLine
 10
-0.132391
 20
-32.7558
 30
0
 11
-17.9483
 21
-26.7947
 31
0
  0
ARC
  5
A0F
330
A02
100
AcDbEntity
  8
Sketch002
100
AcDbCircle
 10
-18.2656
 20
-27.743
 30
0
 40
1
100
AcDbArc
 50
71.5
 51
86.5
  0
LINE
  5
A10
330
A02
100
AcDbEntity
  8
Sketch002
100
AcDbLine
 10
-18.2045
 20
-26.7449
 30
0
 11
-36.5392
 21
-25.6235
 31
0
  0
ARC
  5
A11
330
A02
100
AcDbEntity
  8
Sketch002
100
AcDbCircle
 10
-36.4781
 20
-24.6254
 30
0
 40
1
100
AcDbArc
 50
-151.07
 51
-93.5
  0
LINE
  5
A12
330
A02
100
AcDbEntity
  8
Sketch002
100
AcDbLine
 10
-47.3397
 20
-7.04126
 30
0
 11
-37.3533
 21
-25.1091
 31
0
  0
ARC
  5
A13
330
A02
100
AcDbEntity
  8
Sketch002
100
AcDbCircle
 10
-48.2149
 20
-7.525
 30
0
 40
1
100
AcDbArc
 50
28.93
 51
90
  0
LINE
  5
A14
330
A02
100
AcDbEntity
  8
Sketch002
100
AcDbLine
 10
-48.2149
 20
-6.525
 30
0
 11
-65.4832
 21
-6.525
 31
0
  0
ARC
  5
A15
330
A02
100
AcDbEntity
  8
Sketch002
100
AcDbCircle
 10
-65.4832
 20
-7.525
 30
0
 40
1
100
AcDbArc
 50
90
 51
-170
  0
LINE
  5
A16
330
A02
100
AcDbEntity
  8
Sketch002
100
AcDbLine
 10
-66.4681
 20
-7.69865
 30
0
 11
-64.9385
 21
-16.3731
 31
0
  0
ARC
  5
A17
330
A02
100
AcDbEntity
  8
Sketch002
100
AcDbCircle
 10
-65.9233
 20
-16.5467
 30
0
 40
1
100
AcDbArc
 50
-80
 51
10
  0
LINE
  5
A18
330
A02
100
AcDbEntity
  8
Sketch002
100
AcDbLine
 10
-65.7497
 20
-17.5315
 30
0
 11
-82.5406
 21
-20.4922
 31
0
  0
ARC
  5
A19
330
A02
100
AcDbEntity
  8
Sketch002
100
AcDbCircle
 10
-82.7143
 20
-19.5074
 30
0
 40
1
100
AcDbArc
 50
-170
 51
-80
  0
LINE
  5
A1A
330
A02
100
AcDbEntity
  8
Sketch002
100
AcDbLine
 10
-93.2758
 20
34.6311
 30
0
 11
-83.6991
 21
-19.6811
 31
0
  0
ARC
  5
A1B
330
A02
100
AcDbEntity
  8
Sketch002
100
AcDbCircle
 10
-92.291
 20
34.8047
 30
0
 40
1
100
AcDbArc
 50
100
 51
-170
  0
LINE
  5
A1C
330
A02
100
AcDbEntity
  8
Sketch002
100
AcDbLine
 10
-92.4646
 20
35.7895
 30
0
 11
-67.5014
 21
40.1912
 31
0
  0
ARC
  5
A1D
330
A02
100
AcDbEntity
  8
Sketch002
100
AcDbCircle
 10
-67.675
 20
41.176
 30
0
 40
1
100
AcDbArc
 50
-80
 51
0
  0
LINE
  5
A1E
330
A02
100
AcDbEntity
  8
Sketch002
100
AcDbLine
 10
-66.675
 20
49.625
 30
0
 11
-66.675
 21
41.176
 31
0
  0
ARC
  5
A1F
330
A02
100
AcDbEntity
  8
Sketch002
100
AcDbCircle
 10
-65.675
 20
49.625
 30
0
 40
1
100
AcDbArc
 50
90
 51
180
  0
LINE
  5
A20
330
A02
100
AcDbEntity
  8
Sketch002
100
AcDbLine
 10
-65.675
 20
50.625
 30
0
 11
-48.625
 21
50.625
 31
0
  0
ARC
  5
A21
330
A02
100
AcDbEntity
  8
Sketch002
100
AcDbCircle
 10
-48.625
 20
51.625
 30
0
 40
1
100
AcDbArc
 50
-90
 51
-4.07111e-13
  0
LINE
  5
A22
330
A02
100
AcDbEntity
  8
Sketch002
100
AcDbLine
 10
-47.625
 20
55.625
 30
0
 11
-47.625
 21
51.625
 31
0
  0
ARC
  5
A23
330
A02
100
AcDbEntity
  8
Sketch002
100
AcDbCircle
 10
-46.625
 20
55.625
 30
0
 40
1
100
AcDbArc
 50
90
 51
180
  0
LINE
  5
A24
330
A02
100
AcDbEntity
  8
Sketch002
100
AcDbLine
 10
-46.625
 20
56.625
 30
0
 11
-29.575
 21
56.625
 31
0
  0
ARC
  5
A25
330
A02
100
AcDbEntity
  8
Sketch002
100
AcDbCircle
 10
-29.575
 20
55.625
 30
0
 40
1
100
AcDbArc
 50
0
 51
90
  0
LINE
  5
A26
330
A02
100
AcDbEntity
  8
Sketch002
100
AcDbLine
 10
-28.575
 20
55.625
 30
0
 11
-28.575
 21
51.125
 31
0
  0
ARC
  5
A27
330
A02
100
AcDbEntity
  8
Sketch002
100
AcDbCircle
 10
-27.575
 20
51.125
 30
0
 40
1
100
AcDbArc
 50
180
 51
-90
  0
LINE
  5
A28
330
A02
100
AcDbEntity
  8
Sketch002
100
AcDbLine
 10
-27.575
 20
50.125
 30
0
 11
-10.525
 21
50.125
 31
0
  0
ARC
  5
A29
330
A02
100
AcDbEntity
  8
Sketch002
100
AcDbCircle
 10
-10.525
 20
49.125
 30
0
 40
1
100
AcDbArc
 50
0
 51
90
  0
LINE
  5
A2A
330
A02
100
AcDbEntity
  8
Sketch002
100
AcDbLine
 10
-9.525
 20
49.125
 30
0
 11
-9.525
 21
48.625
 31
0
  0
ARC
  5
A2B
330
A02
100
AcDbEntity
  8
Sketch002
100
AcDbCircle
 10
-8.525
 20
48.625
 30
0
 40
1
100
AcDbArc
 50
180
 51
-90
  0
LINE
  5
A2C
330
A02
100
AcDbEntity
  8
Sketch002
100
AcDbLine
 10
9.525
 20
47.625
 30
0
 11
-8.525
 21
47.625
 31
0
  0
LINE
  5
A2D
330
A02
100
AcDbEntity
  8
Sketch002
100
AcDbLine
 10
9.525
 20
47.625
 30
0
 11
13.625
 21
47.625
 31
0
  0
ARC
  5
A2E
330
A02
100
AcDbEntity
  8
Sketch002
100
AcDbCircle
 10
13.625
 20
46.625
 30
0
 40
1
100
AcDbArc
 50
0
 51
90
  0
LINE
  5
A2F
330
A02
100
AcDbEntity
  8
Sketch002
100
AcDbLine
 10
14.625
 20
46.625
 30
0
 11
14.625
 21
29.625
 31
0
  0
ARC
  5
A30
330
A02
100
AcDbEntity
  8
Sketch002
100
AcDbCircle
 10
15.625
 20
29.625
 30
0
 40
1
100
AcDbArc
 50
180
 51
-90
  0
LINE
  5
A31
330
A02
100
AcDbEntity
  8
Sketch002
100
AcDbLine
 10
24.625
 20
28.625
 30
0
 11
15.625
 21
28.625
 31
0
  0
ARC
  5
A32
330
A02
100
AcDbEntity
  8
Sketch002
100
AcDbCircle
 10
24.625
 20
29.625
 30
0
 40
1
100
AcDbArc
 50
-90
 51
0
  0
LINE
  5
A33
330
A02
100
AcDbEntity
  8
Sketch002
100
AcDbLine
 10
25.625
 20
46.625
 30
0
 11
25.625
 21
29.625
 31
0
  0
ARC
  5
A34
330
A02
100
AcDbEntity
  8
Sketch002
100
AcDbCircle
 10
26.625
 20
46.625
 30
0
 40
1
100
AcDbArc
 50
90
 51
180
  0
LINE
  5
A35
330
A02
100
AcDbEntity
  8
Sketch002
100
AcDbLine
 10
29.725
 20
47.625
 30
0
 11
26.625
 21
47.625
 31
0
  0
ARC
  5
A36
330
A02
100
AcDbEntity
  8
Sketch002
100
AcDbCircle
 10
29.725
 20
46.625
 30
0
 40
1
100
AcDbArc
 50
0
 51
90
  0
LINE
  5
A37
330
A02
100
AcDbEntity
  8
Sketch002
100
AcDbLine
 10
30.725
 20
46.625
 30
0
 11
30.725
 21
44.625
 31
0
  0
LINE
  5
A38
330
A02
100
AcDbEntity
  8
Sketch002
100
AcDbLine
 10
30.725
 20
44.625
 30
0
 11
30.925
 21
44.625
 31
0
  0
LINE
  5
A39
330
A02
100
AcDbEntity
  8
Sketch002
100
AcDbLine
 10
30.925
 20
44.625
 30
0
 11
30.925
 21
39.625
 31
0
  0
LINE
  5
A3A
330
A02
100
AcDbEntity
  8
Sketch002
100
AcDbLine
 10
30.925
 20
39.625
 30
0
 11
30.725
 21
39.625
 31
0
  0
LINE
  5
A3B
330
A02
100
AcDbEntity
  8
Sketch002
100
AcDbLine
 10
30.725
 20
-6.475
 30
0
 11
30.725
 21
39.625
 31
0
  0
LINE
  5
A3C
330
A02
100
AcDbEntity
  8
Sketch002
100
AcDbLine
 10
30.725
 20
-6.475
 30
0
 11
30.925
 21
-6.475
 31
0
  0
LINE
  5
A3D
330
A02
100
AcDbEntity
  8
Sketch002
100
AcDbLine
 10
30.925
 20
-6.475
 30
0
 11
30.925
 21
-11.475
 31
0
  0
LINE
  5
A3E
330
A02
100
AcDbEntity
  8
Sketch002
100
AcDbLine
 10
30.925
 20
-11.475
 30
0
 11
30.725
 21
-11.475
 31
0
  0
LINE
  5
A3F
330
A02
100
AcDbEntity
  8
Sketch002
100
AcDbLine
 10
30.725
 20
-12.075
 30
0
 11
30.725
 21
-11.475
 31
0
  0
LINE
  5
A40
330
A02
100
AcDbEntity
  8
Sketch002
100
AcDbLine
 10
30.725
 20
-12.075
 30
0
 11
30.725
 21
-12.085
 31
0
  0
ARC
  5
A41
330
A02
100
AcDbEntity
  8
Sketch002
100
AcDbCircle
 10
29.725
 20
-12.085
 30
0
 40
1
100
AcDbArc
 50
-15.9095
 51
0
  0
CIRCLE
  5
A42
330
A02
100
AcDbEntity
  8
Sketch002
100
AcDbCircle
 10
-71.3809
 20
20.1633
 40
1
  0
CIRCLE
  5
A43
330
A02
100
AcDbEntity
  8
Sketch002
100
AcDbCircle
 10
-68.0729
 20
1.4027
 40
1
  0
CIRCLE
  5
A44
330
A02
100
AcDbEntity
  8
Sketch002
100
AcDbCircle
 10
-35.9246
 20
-6.57548
 40
1
  0
CIRCLE
  5
A45
330
A02
100
AcDbEntity
  8
Sketch002
100
AcDbCircle
 10
6.03711
 20
-14.732
 40
1
  0
CIRCLE
  5
A46
330
A02
100
AcDbEntity
  8
Sketch002
100
AcDbCircle
 10
-9.525
 20
31.075
 40
1
  0
CIRCLE
  5
A47
330
A02
100
AcDbEntity
  8
Sketch002
100
AcDbCircle
 10
20.125
 20
20.875
 40
1
  0
CIRCLE
  5
A48
330
A02
100
AcDbEntity
  8
Sketch002
100
AcDbCircle
 10
30.725
 20
-8.975
 40
1
  0
ENDSEC
  0
SECTION
  2
OBJECTS
  0
DICTIONARY
  5
F000
330
0
100
AcDbDictionary
  3
ACAD_GROUP
350
F001
  0
DICTIONARY
  5
F001
330
F000
100
AcDbDictionary
  0
ENDSEC
  0
EOF